<?xml version="1.0" standalone="no"?>
<!DOCTYPE svg PUBLIC "-//W3C//DTD SVG 20010904//EN"
 "http://www.w3.org/TR/2001/REC-SVG-20010904/DTD/svg10.dtd">
<svg version="1.0" xmlns="http://www.w3.org/2000/svg"
 width="640.000000pt" height="640.000000pt" viewBox="0 0 640.000000 640.000000"
 preserveAspectRatio="xMidYMid meet">

<g transform="translate(0.000000,640.000000) scale(0.100000,-0.100000)"
fill="#000000" stroke="none">
<path d="M1310 5602 c0 -10 976 -1906 1254 -2437 29 -55 182 -351 341 -657
158 -307 291 -558 295 -558 4 0 137 251 295 558 159 306 312 602 341 657 110
211 1105 2138 1179 2283 42 84 75 154 73 156 -7 5 -773 -65 -780 -72 -4 -4
-96 -178 -204 -387 -109 -209 -325 -625 -481 -925 -156 -300 -314 -605 -351
-677 -37 -73 -69 -133 -72 -133 -3 0 -35 60 -72 133 -37 72 -195 377 -351 677
-156 300 -372 716 -481 925 -108 209 -200 383 -204 387 -4 4 -169 21 -367 37
-198 17 -372 33 -387 34 -16 2 -28 1 -28 -1z"/>
<path d="M1314 3815 c3 -693 9 -1657 13 -2142 l6 -883 609 0 609 0 -100 122
c-55 68 -169 209 -255 313 l-155 190 -1 1128 0 1128 -342 662 c-187 364 -352
680 -365 702 l-25 40 6 -1260z"/>
<path d="M4723 4372 l-363 -701 0 -1128 0 -1128 -254 -310 -253 -310 605 -3
c333 -1 606 -1 608 0 4 5 26 4044 22 4167 l-3 115 -362 -702z"/>
</g>
</svg>
