<?xml version="1.0" standalone="no"?>
<!DOCTYPE svg PUBLIC "-//W3C//DTD SVG 20010904//EN"
 "http://www.w3.org/TR/2001/REC-SVG-20010904/DTD/svg10.dtd">
<svg version="1.0" xmlns="http://www.w3.org/2000/svg"
 width="640.000000pt" height="640.000000pt" viewBox="0 0 640.000000 640.000000"
 preserveAspectRatio="xMidYMid meet">

<g transform="translate(0.000000,640.000000) scale(0.100000,-0.100000)"
fill="#000000" stroke="none">
<path d="M138 6393 c6 -2 18 -2 25 0 6 3 1 5 -13 5 -14 0 -19 -2 -12 -5z"/>
<path d="M3892 6384 c4 -21 22 -23 26 -1 2 10 -3 17 -13 17 -10 0 -15 -6 -13
-16z"/>
<path d="M2320 6339 c7 -11 14 -19 16 -16 7 7 -7 37 -17 37 -6 0 -5 -9 1 -21z"/>
<path d="M4418 6339 c-18 -10 -25 -39 -9 -39 12 0 33 28 29 39 -2 6 -9 6 -20
0z"/>
<path d="M2902 6313 c-13 -17 -30 -28 -48 -29 -16 -1 -32 -2 -36 -3 -5 0 -8
-18 -8 -39 0 -47 -14 -62 -57 -62 -29 0 -33 -3 -33 -26 0 -23 -3 -25 -28 -19
-17 3 -59 -2 -102 -14 -58 -16 -76 -18 -82 -8 -6 9 -8 9 -8 0 0 -7 -7 -13 -15
-13 -8 0 -35 -10 -60 -21 -25 -12 -56 -19 -70 -17 -13 3 -22 1 -19 -3 3 -5 -8
-11 -23 -15 -15 -4 -52 -18 -82 -30 -29 -13 -57 -21 -62 -18 -5 3 -9 0 -9 -5
0 -6 -7 -11 -15 -11 -8 0 -15 -5 -15 -11 0 -7 -10 -9 -25 -7 -13 3 -22 1 -19
-3 8 -13 -35 -31 -57 -24 -22 7 -73 -20 -64 -34 5 -9 -32 -25 -49 -22 -5 1 -6
-5 -3 -13 6 -16 -36 -31 -55 -20 -6 4 -8 3 -4 -4 3 -6 -3 -14 -15 -17 -11 -4
-18 -9 -15 -13 6 -5 -26 -27 -56 -38 -10 -3 -18 -11 -18 -16 0 -5 -16 -16 -35
-24 -19 -8 -35 -19 -35 -24 0 -6 -6 -10 -13 -10 -15 0 -77 -58 -77 -71 0 -5
-5 -9 -11 -9 -6 0 -8 7 -5 16 3 8 2 12 -4 9 -6 -3 -10 -15 -10 -26 0 -13 -7
-19 -21 -19 -11 0 -17 -4 -14 -10 3 -5 2 -10 -4 -10 -13 0 -66 -53 -63 -62 1
-5 -1 -7 -6 -7 -4 1 -16 1 -27 -1 l-20 -1 20 -9 c18 -8 18 -9 2 -9 -10 -1 -15
-5 -12 -11 3 -5 2 -10 -4 -10 -5 0 -12 6 -14 13 -3 7 -6 5 -6 -5 -1 -10 -8
-18 -16 -18 -8 0 -14 -3 -13 -7 6 -17 -127 -154 -138 -145 -5 4 -2 -2 6 -12
10 -13 10 -17 3 -12 -8 4 -13 1 -13 -8 0 -9 -4 -16 -10 -16 -5 0 -10 -7 -10
-16 0 -8 -4 -12 -10 -9 -5 3 -10 -1 -10 -10 0 -9 -9 -19 -19 -22 -11 -3 -22
-12 -25 -21 -9 -25 -30 -59 -49 -80 -10 -10 -17 -27 -18 -38 0 -18 -1 -18 -8
1 -7 16 -9 13 -15 -20 -7 -37 -36 -92 -36 -68 0 7 5 15 10 18 13 8 13 25 0 25
-6 0 -9 -3 -8 -7 1 -5 -3 -18 -10 -29 -6 -12 -8 -24 -5 -28 3 -3 1 -6 -5 -6
-7 0 -12 -7 -12 -16 0 -8 -4 -13 -9 -10 -5 4 -7 -3 -4 -14 3 -12 0 -20 -7 -20
-7 0 -10 -7 -6 -16 4 -11 2 -15 -8 -11 -8 3 -13 -1 -12 -11 0 -9 -4 -16 -11
-15 -6 1 -10 -8 -8 -23 2 -18 -1 -24 -12 -20 -8 3 -12 2 -9 -2 6 -10 -39 -114
-46 -106 -4 3 -4 -4 -1 -17 4 -14 2 -20 -4 -16 -7 5 -9 0 -6 -13 3 -12 0 -20
-7 -20 -7 0 -10 -8 -7 -20 3 -11 2 -20 -3 -20 -4 0 -11 -10 -15 -22 -4 -13 -8
-26 -10 -30 -1 -5 -3 -17 -4 -28 0 -11 -6 -19 -13 -18 -8 2 -11 -10 -9 -35 1
-22 -4 -48 -13 -62 -9 -13 -16 -31 -16 -40 0 -9 -3 -14 -8 -12 -4 3 -8 -19 -9
-49 -1 -30 -7 -63 -13 -73 -5 -11 -10 -35 -10 -55 0 -19 -5 -38 -11 -42 -6 -3
-8 -15 -6 -26 3 -11 2 -28 -3 -37 -5 -9 -14 -75 -21 -148 -19 -204 -3 -465 39
-660 6 -29 6 -45 -2 -53 -8 -8 -7 -10 6 -5 22 8 19 -27 -3 -37 -16 -6 -267 27
-426 57 -93 18 -253 45 -265 45 -5 0 -8 -6 -8 -13 0 -16 50 -33 140 -46 36 -6
105 -17 155 -25 50 -8 158 -23 240 -32 83 -9 160 -20 171 -24 16 -6 26 -25 39
-79 9 -38 14 -75 10 -81 -3 -6 -1 -9 5 -8 13 3 42 -91 33 -106 -4 -5 -1 -6 5
-2 8 5 12 -1 12 -14 0 -14 4 -19 12 -14 8 5 7 0 -2 -11 -8 -10 -10 -16 -3 -12
14 9 28 -27 17 -45 -5 -8 -2 -9 9 -5 17 6 21 -2 17 -37 -1 -12 2 -16 10 -11 8
5 11 3 8 -6 -3 -8 4 -27 14 -44 l20 -30 -21 24 c-12 13 -21 19 -21 13 0 -6 -9
-8 -20 -5 -11 3 -32 -2 -46 -12 -24 -15 -26 -22 -22 -66 5 -48 5 -49 -26 -54
-46 -9 -386 -11 -583 -4 -130 4 -173 3 -173 -6 0 -13 93 -25 200 -25 36 0 95
-3 131 -6 l66 -7 22 -44 c39 -80 49 -76 -199 -71 -207 4 -220 3 -220 -14 0
-13 8 -18 30 -18 35 0 47 -19 50 -75 3 -63 2 -64 -40 -71 -30 -5 -40 -11 -40
-25 0 -15 7 -19 33 -19 40 0 57 -15 57 -52 0 -36 24 -46 51 -22 19 17 21 17
51 -13 17 -17 27 -36 24 -42 -4 -6 -31 -11 -59 -11 -29 0 -76 -3 -105 -6 -47
-6 -52 -9 -52 -32 0 -24 1 -24 60 -18 33 4 102 11 153 16 50 4 159 16 240 25
137 16 149 16 166 1 28 -25 56 -95 44 -107 -6 -6 -43 -15 -84 -20 -41 -5 -121
-16 -179 -24 -96 -13 -371 -45 -391 -45 -5 0 -9 -14 -9 -31 0 -30 2 -31 32
-26 18 3 71 13 118 21 47 8 139 22 205 31 66 9 155 23 199 30 43 8 95 15 115
15 l37 0 54 -121 c30 -67 60 -124 67 -126 33 -13 27 16 -23 123 -30 64 -54
123 -52 131 4 18 261 87 294 79 12 -3 47 -33 78 -67 32 -34 60 -58 64 -55 3 4
-8 33 -26 65 -18 32 -32 65 -32 73 0 8 28 23 72 37 130 42 124 41 147 20 12
-11 18 -25 15 -31 -4 -7 -2 -8 4 -4 12 7 137 -108 137 -127 0 -5 9 -11 20 -13
11 -2 24 -9 30 -17 5 -7 18 -16 28 -20 9 -3 17 -14 17 -22 0 -9 4 -13 10 -10
5 3 19 -3 31 -14 12 -11 26 -18 31 -15 4 3 8 -2 8 -10 0 -9 8 -16 18 -16 14 0
15 -2 2 -10 -12 -8 -11 -10 8 -10 12 0 22 -1 22 -2 0 -2 -9 -27 -20 -56 -53
-139 2 -188 97 -86 52 56 52 57 77 40 26 -16 109 -63 136 -76 8 -4 27 -13 42
-20 15 -7 25 -18 21 -23 -4 -6 -1 -7 7 -2 8 5 30 0 54 -13 66 -33 218 -90 259
-98 21 -3 41 -12 43 -18 2 -6 28 -12 56 -14 29 -1 54 -6 57 -11 6 -8 133 -34
226 -46 132 -17 259 -24 403 -22 156 2 162 1 162 -18 0 -16 2 -17 9 -5 6 8 8
17 6 20 -2 4 44 12 103 19 59 7 116 17 127 21 38 17 99 17 113 1 11 -14 12
-13 7 7 -5 17 -2 22 12 23 10 0 27 2 38 5 11 2 31 5 45 7 14 2 39 11 55 19 25
13 57 22 115 33 14 3 128 60 152 77 14 10 32 18 40 18 20 0 68 24 68 34 0 5 7
3 16 -4 8 -8 14 -9 13 -4 -4 21 2 28 11 14 7 -11 10 -12 10 -2 0 16 25 43 33
36 3 -3 17 2 31 11 25 16 27 16 56 -9 33 -28 73 -27 117 2 24 15 47 82 41 117
-5 24 2 32 50 60 17 11 32 23 32 28 0 5 7 7 15 3 8 -3 14 -2 12 3 -3 10 70 81
83 81 5 0 15 9 22 20 7 11 16 20 21 20 4 0 5 -5 1 -12 -4 -7 -3 -8 4 -4 7 4
12 17 12 29 0 16 3 18 9 9 6 -10 10 -7 15 12 4 15 10 24 15 21 11 -6 23 24 14
37 -3 7 -1 8 6 4 15 -10 61 20 61 39 0 7 5 17 12 21 7 5 9 2 4 -7 -4 -8 1 -4
10 8 9 13 22 23 30 23 7 0 16 10 20 23 10 31 37 66 52 67 6 0 12 7 12 15 0 25
30 17 101 -25 37 -22 71 -40 75 -40 16 0 -72 83 -101 95 -23 10 -33 11 -44 2
-12 -10 -12 -9 -3 8 6 11 16 27 23 35 9 13 10 12 5 -4 -6 -16 -4 -17 9 -6 12
10 13 16 3 28 -7 9 -8 13 -2 9 6 -3 16 5 23 19 6 14 15 23 20 19 5 -3 13 0 17
6 4 8 3 9 -4 5 -22 -13 -12 13 11 29 12 8 21 18 20 20 -6 11 -2 22 15 41 9 10
23 31 31 46 8 15 18 25 23 22 5 -3 8 -2 7 3 -3 19 2 34 9 29 5 -3 8 4 7 16 -1
11 9 32 22 46 13 14 21 32 19 39 -3 7 -1 13 4 13 6 0 10 6 10 14 0 8 7 16 15
20 9 3 15 18 15 36 0 22 5 30 18 30 13 0 14 2 3 9 -11 7 -10 13 8 32 11 12 20
28 19 33 -2 10 20 64 43 108 5 10 9 27 9 38 0 11 4 20 9 20 5 0 11 18 15 40 3
22 10 40 15 40 5 0 7 8 4 18 -4 17 4 20 73 25 42 4 223 7 401 7 271 0 323 2
323 14 0 22 -179 30 -435 20 -121 -4 -247 -8 -280 -8 l-60 -1 3 30 c6 72 15
116 23 121 5 3 9 26 9 52 0 26 5 65 10 87 5 22 12 104 16 182 6 130 8 142 28
152 24 11 177 40 246 46 25 2 97 11 160 20 63 8 152 20 198 26 52 7 82 16 82
23 0 15 -67 12 -215 -11 -55 -8 -140 -19 -190 -24 l-90 -9 -22 27 c-30 37 -48
72 -40 80 8 7 300 56 434 72 108 13 123 18 123 38 0 13 -9 14 -57 7 -32 -4
-76 -8 -97 -8 l-39 -1 -13 55 c-10 43 -10 58 -1 67 7 7 55 21 107 30 90 17 95
20 98 45 3 26 2 26 -35 16 -133 -34 -181 -36 -189 -10 -3 9 -10 28 -15 41
l-10 24 -23 -22 c-28 -26 -34 -26 -71 4 -18 15 -26 28 -20 33 6 5 57 18 114
30 75 16 107 19 117 11 9 -8 18 -5 33 10 12 12 30 21 42 21 37 0 59 19 59 51
0 26 -3 30 -17 24 -10 -4 -31 -11 -48 -15 -16 -5 -61 -17 -100 -28 -38 -10
-122 -33 -185 -50 -63 -18 -146 -41 -185 -52 -46 -13 -72 -17 -79 -10 -17 17
-41 11 -64 -15 -12 -14 -25 -26 -29 -26 -34 -6 -53 -5 -54 2 -2 11 -3 15 -18
68 -15 52 -13 53 69 77 30 8 93 27 140 41 47 14 112 33 145 43 60 18 261 75
368 105 55 16 57 18 57 51 0 19 -3 34 -7 34 -5 0 -66 -21 -138 -46 -71 -25
-155 -55 -185 -65 -30 -11 -92 -31 -138 -44 -46 -14 -137 -44 -204 -66 -136
-46 -127 -48 -154 41 -10 30 -21 59 -26 65 -4 5 -8 19 -8 31 0 12 -6 25 -12
27 -10 4 -9 8 2 16 9 6 10 11 3 11 -6 0 -22 21 -35 48 -13 26 -26 49 -30 52
-4 3 -8 20 -10 37 -1 17 -6 31 -11 30 -5 -1 -19 21 -30 48 -12 28 -26 55 -32
62 -31 36 -35 43 -35 57 0 8 -4 17 -9 21 -5 3 -21 30 -35 60 -14 30 -30 55
-35 55 -6 0 -11 6 -11 14 0 8 -9 18 -21 21 -16 5 -18 10 -8 21 9 11 8 14 -6
14 -11 0 -15 5 -11 15 3 8 1 15 -5 15 -12 0 -64 50 -52 50 4 0 0 7 -10 14 -10
8 -16 19 -15 25 2 6 -8 17 -22 24 -13 7 -27 23 -30 37 -4 16 -14 26 -28 28
-12 2 -22 8 -22 14 0 13 -59 68 -72 68 -6 0 -5 6 2 15 10 12 9 15 -7 15 -11 0
-30 13 -42 28 -12 16 -41 44 -66 62 -24 18 -42 37 -39 41 3 5 -3 6 -12 2 -12
-4 -15 -3 -10 5 6 11 -5 16 -26 13 -4 0 -5 6 -2 14 4 10 0 15 -13 15 -21 0
-67 43 -57 53 3 3 -4 3 -17 0 -15 -4 -20 -3 -15 5 5 8 0 12 -13 12 -12 0 -21
3 -21 8 0 4 -16 16 -35 26 -19 10 -32 23 -29 27 3 5 -7 11 -21 15 -14 3 -25
10 -25 15 0 5 -6 9 -14 9 -8 0 -16 5 -18 11 -3 9 -22 16 -52 18 -4 1 -6 8 -3
15 4 9 1 13 -6 10 -7 -2 -22 4 -34 15 -11 11 -24 17 -27 13 -4 -3 -11 0 -16 8
-5 8 -13 15 -17 15 -28 2 -112 39 -110 48 1 7 -3 11 -10 10 -9 -2 -10 4 -2 25
17 43 39 170 39 223 0 40 -3 47 -16 42 -10 -4 -17 1 -21 16 -3 12 -13 21 -24
21 -10 0 -21 5 -25 11 -4 7 -17 0 -36 -18 -24 -23 -30 -25 -38 -13 -5 8 -10
19 -10 23 0 5 -4 6 -8 3 -5 -3 -6 -66 -4 -140 l4 -135 -31 1 c-17 1 -31 5 -31
9 0 4 -14 10 -30 14 -17 4 -28 10 -26 13 2 4 -14 6 -36 4 -26 -3 -38 -1 -34 6
8 13 -30 24 -78 22 -28 -1 -36 2 -31 11 6 9 2 11 -13 7 -27 -7 -105 15 -95 27
4 4 3 5 -3 2 -7 -4 -47 -2 -90 3 -44 5 -101 12 -129 15 -27 4 -124 8 -214 10
l-165 3 -25 54 c-14 29 -33 63 -42 76 l-17 23 -20 -28z m561 -229 c62 -8 118
-20 125 -27 8 -6 12 -21 9 -34 -2 -12 0 -20 4 -17 5 3 9 16 9 29 0 22 3 24 33
19 17 -3 43 -9 57 -14 14 -4 66 -18 115 -30 85 -21 122 -34 189 -66 16 -8 33
-14 38 -14 5 0 45 -17 91 -38 45 -21 94 -44 109 -50 14 -6 26 -17 25 -24 -1
-34 4 -48 18 -48 9 0 18 7 21 15 5 12 15 9 57 -14 71 -38 160 -94 172 -107 6
-6 37 -31 70 -55 33 -24 70 -52 81 -64 12 -11 34 -29 49 -40 15 -11 59 -50 97
-86 64 -61 69 -69 58 -89 -14 -26 -1 -40 39 -40 25 0 76 -49 116 -110 12 -19
30 -41 38 -49 20 -16 127 -176 127 -189 0 -5 6 -15 14 -21 17 -15 143 -269
161 -326 7 -22 23 -62 35 -88 29 -65 19 -71 -16 -10 -48 86 -54 93 -74 93 -28
0 -25 -11 16 -75 34 -53 35 -58 20 -80 -22 -33 -21 -35 14 -30 25 3 33 -1 45
-25 8 -16 15 -32 15 -35 0 -7 -100 -53 -208 -96 -68 -27 -75 -28 -106 -15 -19
8 -53 33 -76 57 -58 60 -72 39 -20 -31 22 -30 39 -61 38 -69 -2 -7 -43 -35
-93 -62 -169 -90 -200 -107 -235 -134 l-35 -26 -5 43 c-7 53 -16 68 -41 68
-32 0 -54 -64 -39 -113 6 -21 9 -41 7 -43 -2 -3 -27 -22 -55 -43 l-51 -38 84
-120 85 -120 37 6 c34 6 38 10 36 34 -2 25 1 27 43 29 24 0 50 1 57 2 7 1 12
-12 12 -33 0 -31 -4 -36 -67 -68 -38 -19 -68 -39 -68 -44 0 -14 7 -11 68 24
61 35 222 107 241 107 6 0 10 -5 9 -12 -2 -6 5 -14 15 -16 13 -3 17 3 17 22 0
19 5 26 19 26 10 0 24 7 31 15 17 20 29 19 49 -7 10 -12 23 -18 29 -14 17 10
15 36 -3 36 -22 0 -18 18 5 25 26 8 40 -1 40 -28 0 -13 7 -33 16 -45 14 -21
14 -23 -13 -33 -15 -7 -41 -17 -58 -24 -16 -7 -61 -23 -100 -35 -73 -24 -183
-74 -200 -92 -5 -5 8 -2 30 7 22 10 90 35 150 56 61 21 135 47 165 58 71 27
77 27 85 -8 14 -63 74 -90 123 -55 18 12 22 25 22 69 0 45 3 55 20 59 11 3 30
9 42 12 21 6 21 6 14 -122 -7 -148 -32 -309 -67 -450 l-11 -41 -66 -11 c-37
-6 -87 -14 -112 -17 -59 -8 -179 -34 -205 -45 -11 -5 -27 -11 -35 -13 -29 -10
38 -7 91 4 76 15 313 47 318 43 2 -2 -4 -19 -13 -38 -9 -19 -19 -49 -23 -68
-3 -18 -9 -35 -13 -38 -3 -3 -14 -27 -24 -55 -47 -126 -195 -413 -218 -423 -5
-2 -8 -10 -8 -18 0 -8 -4 -14 -10 -14 -5 0 -10 -5 -10 -11 0 -7 -17 -32 -37
-57 -20 -24 -53 -66 -73 -93 -80 -107 -211 -247 -295 -314 -27 -22 -61 -50
-75 -62 -14 -13 -63 -52 -108 -88 -82 -64 -121 -83 -141 -71 -5 4 -17 -7 -27
-23 -20 -34 -82 -73 -226 -141 -114 -53 -216 -94 -286 -113 -24 -7 -40 -16
-36 -20 4 -4 -1 -7 -12 -7 -10 0 -49 -7 -86 -16 l-68 -17 -20 24 -20 24 9 -26
9 -26 -86 -16 c-263 -49 -588 -48 -862 3 -125 23 -350 83 -390 104 -14 7 -43
19 -64 26 -73 24 -346 160 -347 174 0 6 0 29 0 51 1 35 -3 43 -35 62 -45 29
-52 29 -85 -3 l-27 -26 -38 34 c-22 19 -49 41 -61 50 -34 22 -151 126 -206
182 l-48 49 41 18 42 19 36 -38 37 -37 3 33 c2 18 -2 40 -9 48 -14 17 -17 15
51 48 30 15 81 45 114 67 63 42 78 46 95 25 9 -10 9 -20 0 -40 -20 -43 22 -76
52 -40 11 13 9 23 -15 66 -21 36 -25 53 -17 61 15 15 14 27 -3 21 -18 -7 -31
72 -15 92 9 11 15 11 33 -2 13 -8 28 -25 34 -39 13 -29 28 -31 54 -8 17 15 18
15 18 -5 0 -12 3 -22 8 -22 4 0 13 -9 20 -21 11 -17 9 -30 -13 -84 -14 -35
-28 -90 -31 -122 -6 -53 -4 -60 18 -81 l25 -22 47 41 c25 23 60 61 77 86 40
57 69 57 81 -1 5 -22 13 -45 19 -53 11 -13 9 -41 -6 -77 -6 -14 -5 -17 3 -12
7 4 17 -3 24 -18 6 -14 17 -26 25 -26 14 0 14 -5 0 -130 -1 -12 26 -97 40
-123 16 -33 68 -67 101 -67 39 0 115 46 165 100 37 40 53 51 70 47 17 -4 29 3
50 31 24 31 28 43 23 75 -5 29 -3 37 9 37 8 0 15 5 15 10 0 6 -9 10 -20 10
-11 0 -20 5 -20 11 0 5 5 7 11 3 6 -4 10 1 8 12 -2 11 1 33 6 49 9 33 11 43
13 64 1 8 8 11 19 7 10 -4 25 2 38 14 12 11 28 18 36 15 22 -8 41 -44 31 -60
-13 -24 -2 -87 14 -81 9 3 14 -2 14 -14 0 -11 4 -20 9 -20 17 0 23 20 12 34
-8 10 -7 17 4 26 19 16 33 4 37 -30 2 -19 -2 -26 -18 -28 -15 -2 -24 -13 -28
-34 -16 -81 2 -131 49 -140 35 -7 48 20 40 83 -9 63 6 59 58 -16 21 -30 50
-60 65 -67 22 -11 28 -21 30 -56 2 -25 -1 -42 -7 -42 -6 0 -11 -7 -11 -16 0
-26 35 -11 38 16 6 37 21 50 57 50 44 0 58 -20 50 -70 -8 -45 9 -56 20 -13 13
55 46 67 101 38 39 -20 61 -19 69 4 7 24 32 17 40 -10 4 -11 11 -17 16 -13 6
3 8 12 5 20 -3 8 1 14 8 14 9 0 12 7 9 20 -8 29 13 25 35 -7 17 -26 26 -45 52
-117 21 -56 20 -18 -1 49 -23 77 -17 111 23 117 17 2 24 10 26 33 3 27 25 55
43 55 4 0 11 -9 14 -20 3 -11 11 -20 16 -20 12 0 12 87 -1 111 -8 15 -7 19 4
19 8 0 18 -4 21 -10 8 -13 35 -13 35 -1 0 10 85 156 116 199 12 18 19 21 28
12 8 -8 7 -13 -2 -19 -10 -6 -2 -14 27 -29 54 -28 84 -17 146 55 41 47 48 61
47 94 -1 29 3 41 17 49 11 5 27 17 36 27 13 12 21 14 34 6 12 -7 19 -6 27 5 7
10 27 16 51 16 37 1 39 3 40 33 1 45 9 52 46 47 27 -5 38 0 67 30 34 35 60 46
60 26 0 -5 4 -10 10 -10 5 0 7 7 3 16 -3 9 5 26 19 42 27 28 48 64 48 80 0 14
-43 2 -52 -14 -5 -7 -17 -10 -29 -7 -14 4 -22 0 -25 -13 -6 -24 -54 -48 -68
-34 -7 7 -6 10 2 10 7 0 12 6 10 13 -4 24 23 84 52 112 26 25 30 36 30 86 0
32 7 70 15 86 9 15 20 40 25 55 7 20 14 25 29 21 24 -6 30 21 7 30 -10 4 -12
24 -9 84 3 43 8 90 13 104 5 16 3 37 -7 59 -19 46 -13 83 15 95 28 12 38 48
23 81 -15 33 3 31 58 -6 24 -17 48 -30 53 -30 21 0 2 19 -74 74 -80 60 -182
169 -238 255 -16 25 -50 75 -75 111 -66 93 -154 229 -172 269 -14 28 -15 44
-5 105 7 44 7 72 1 74 -12 5 -12 52 1 52 6 0 10 17 10 39 0 31 4 40 21 44 21
6 21 6 -4 49 -32 53 -48 168 -25 168 17 0 14 37 -7 77 l-12 23 -11 -25 c-13
-28 -37 -33 -46 -10 -3 8 -14 15 -23 15 -25 0 -65 29 -57 41 3 6 13 8 21 5 10
-4 13 -1 8 13 -7 22 39 121 61 134 8 4 14 17 14 27 0 25 12 25 34 1 10 -11 32
-25 49 -31 30 -10 29 -8 -17 34 -27 25 -46 51 -43 58 3 7 8 21 12 31 5 12 2
17 -9 17 -22 0 -20 23 4 45 15 14 20 15 20 4 1 -25 95 -98 144 -111 41 -11 48
-10 63 5 10 10 18 25 18 35 0 12 7 16 23 14 22 -2 23 1 18 35 -3 21 -8 67 -12
102 -6 57 -11 68 -40 94 -18 17 -31 34 -28 38 8 13 -16 50 -27 43 -6 -3 -8
-18 -4 -32 8 -31 -7 -42 -56 -42 -30 0 -43 7 -68 35 -34 40 -40 79 -17 123 17
33 66 80 66 64 0 -7 7 -12 16 -12 9 0 14 7 12 18 -2 10 -11 16 -23 14 -16 -3
-17 -1 -6 11 8 10 9 17 1 22 -15 9 -32 -5 -26 -21 5 -12 1 -12 -24 1 -16 8
-32 20 -35 25 -5 8 -11 8 -20 0 -11 -9 -12 -4 -5 27 4 21 11 63 14 93 l7 55
-151 78 c-82 42 -156 77 -163 77 -15 0 -39 -65 -31 -83 2 -7 54 -37 114 -67
60 -30 126 -66 147 -80 41 -28 53 -59 30 -78 -11 -10 -46 4 -166 65 -83 42
-154 73 -157 70 -4 -3 -8 -25 -11 -49 l-4 -43 131 -70 c73 -38 141 -74 151
-80 22 -11 24 -33 6 -60 -19 -29 -19 -65 0 -65 13 0 14 -8 8 -47 -4 -27 -12
-51 -18 -55 -9 -5 -9 -10 1 -20 15 -15 16 -98 1 -98 -5 0 -8 4 -4 9 3 5 1 12
-5 16 -5 3 -10 1 -10 -4 0 -6 -5 -11 -10 -11 -6 0 -8 11 -4 25 5 19 2 25 -10
25 -20 0 -20 4 4 67 15 39 16 53 7 61 -7 5 -76 41 -154 81 l-143 72 -16 -35
c-9 -19 -15 -40 -12 -48 3 -7 58 -40 122 -73 155 -80 172 -93 160 -129 l-10
-28 -140 71 c-77 39 -145 71 -151 71 -14 0 -23 -24 -23 -59 0 -24 12 -32 113
-85 105 -55 146 -86 147 -112 0 -6 -39 -16 -92 -22 l-91 -11 -59 31 c-32 17
-60 29 -61 27 -13 -18 -26 -62 -21 -70 3 -5 28 -21 55 -34 46 -24 49 -27 38
-48 -7 -12 -13 -23 -14 -25 -1 -1 -24 7 -50 18 -52 23 -65 17 -65 -28 0 -15
11 -29 35 -43 39 -23 41 -27 22 -53 -13 -17 -15 -17 -45 -2 -30 15 -32 15 -42
-3 -16 -31 -12 -51 15 -63 31 -14 31 -17 -1 -79 -21 -43 -27 -49 -40 -38 -22
18 -36 -6 -30 -54 3 -29 -1 -44 -14 -57 -10 -10 -23 -34 -28 -52 -5 -18 -46
-103 -91 -188 -44 -85 -111 -215 -148 -287 -38 -73 -71 -133 -74 -133 -3 0
-16 23 -29 51 l-24 50 63 267 c34 147 89 377 121 512 32 135 56 247 53 250 -3
3 -8 0 -10 -6 -2 -6 -10 -19 -17 -29 -12 -17 -15 -11 -25 49 -31 179 -139 292
-256 270 -19 -3 -35 -2 -35 2 -1 5 -11 57 -24 117 l-24 107 33 68 c99 200 131
450 82 629 -8 28 -12 55 -8 59 10 10 299 -4 424 -22z m-455 -29 c28 -83 -10
-273 -81 -399 -18 -32 -37 -59 -42 -60 -26 -3 -43 225 -25 330 22 122 55 177
104 172 26 -3 33 -9 44 -43z m-284 0 c-7 -17 -43 -29 -71 -23 -19 4 -53 -24
-53 -44 0 -7 4 -19 9 -27 7 -11 13 -10 31 7 41 38 55 2 19 -47 -17 -23 -18
-31 -8 -54 17 -38 5 -73 -32 -86 -17 -6 -35 -8 -39 -6 -5 3 -11 1 -15 -5 -4
-6 9 -10 33 -10 56 0 65 -15 55 -97 -8 -64 -7 -69 16 -88 20 -18 25 -35 33
-115 9 -96 5 -140 -12 -140 -6 0 -15 12 -20 26 -14 36 -33 20 -26 -21 5 -23 2
-38 -9 -49 -22 -21 -30 -20 -48 7 -21 31 -31 15 -19 -33 9 -37 8 -43 -23 -82
-17 -24 -37 -60 -44 -80 -15 -46 -41 -50 -69 -11 -12 17 -21 22 -26 15 -4 -7
9 -27 29 -46 40 -39 53 -82 33 -109 -10 -13 -32 -19 -83 -24 l-70 -5 -21 73
c-12 41 -61 204 -109 363 -78 256 -86 293 -77 323 9 29 7 40 -20 90 -27 50
-28 58 -16 81 7 14 29 31 48 39 19 8 53 23 75 33 22 10 51 21 65 25 14 4 30
11 35 15 24 16 156 56 280 85 39 8 86 19 105 24 49 13 50 13 44 -4z m-812
-350 c-4 -55 -2 -65 11 -65 9 0 20 -6 24 -14 4 -7 18 -18 30 -25 13 -6 25 -22
28 -34 3 -12 35 -148 71 -302 87 -367 83 -335 45 -335 -17 0 -31 -2 -31 -5 0
-3 26 -58 59 -123 86 -173 87 -242 5 -242 -24 0 -34 7 -47 33 -14 28 -16 29
-16 10 -1 -13 -5 -23 -10 -23 -20 0 -71 73 -86 122 -18 63 -41 90 -64 78 -9
-5 -24 -11 -35 -14 -12 -4 -16 -12 -12 -22 4 -9 4 -25 0 -36 -4 -15 -9 -17
-20 -7 -8 6 -14 18 -14 26 0 11 -6 14 -22 9 -13 -4 -39 -10 -58 -13 -38 -6
-89 -55 -90 -86 0 -9 -6 -27 -12 -38 -10 -17 -10 -23 0 -26 6 -3 12 -19 12
-37 0 -22 8 -42 25 -58 l25 -25 -25 -13 c-14 -7 -25 -19 -25 -26 0 -7 -6 -17
-13 -21 -20 -12 -50 -77 -37 -81 5 -2 10 -16 10 -32 0 -20 13 -42 45 -76 25
-25 45 -52 45 -58 0 -6 9 -22 20 -36 25 -32 25 -51 0 -100 -24 -48 -54 -58
-121 -41 -61 16 -92 3 -87 -37 l3 -26 86 3 86 3 7 -47 c8 -49 1 -70 -14 -45
-5 8 -12 11 -16 8 -4 -4 -16 -3 -26 3 -14 8 -23 8 -31 0 -6 -6 -18 -11 -27
-11 -21 0 -44 -56 -45 -107 0 -55 52 -114 97 -109 16 1 34 8 40 14 20 20 28
14 28 -18 0 -38 -26 -80 -50 -80 -21 0 -90 -58 -90 -76 0 -6 -11 -19 -25 -28
-31 -20 -35 -76 -7 -104 18 -18 18 -20 1 -52 -10 -18 -23 -38 -29 -44 -5 -5
-10 -19 -10 -31 0 -12 -6 -30 -14 -41 -14 -18 -15 -18 -22 -1 -3 10 -2 23 4
29 12 12 5 38 -10 38 -5 0 -6 -9 -3 -20 4 -13 2 -20 -7 -20 -24 0 -38 23 -38
63 0 51 -16 39 -24 -18 -4 -25 -10 -45 -13 -45 -4 0 -17 10 -30 21 -19 18 -25
20 -38 9 -8 -7 -18 -10 -22 -6 -3 3 -1 6 5 6 15 0 16 64 2 91 -13 23 -53 25
-75 2 -13 -12 -15 -26 -11 -54 4 -27 2 -40 -10 -50 -9 -7 -20 -23 -25 -36 -13
-34 -25 -29 -55 22 -14 25 -30 45 -35 45 -12 0 -11 -5 6 -47 8 -19 15 -37 15
-39 0 -2 -56 -4 -125 -4 -112 0 -125 2 -126 18 -1 16 -2 16 -6 -1 -3 -13 -11
-16 -31 -11 -41 10 -42 12 -42 58 0 23 -4 46 -9 52 -20 20 -44 260 -44 444 0
167 22 414 40 442 2 5 9 33 13 61 17 106 79 319 111 379 5 10 9 25 9 33 0 8 4
15 9 15 5 0 12 12 15 26 7 25 81 180 129 269 12 23 39 64 60 93 20 29 37 55
37 58 0 14 83 104 91 98 5 -3 6 2 3 10 -12 32 309 362 418 430 18 11 44 31 58
44 19 18 178 122 186 122 1 0 -1 -29 -4 -65z m38 55 c0 -5 -2 -10 -4 -10 -3 0
-8 5 -11 10 -3 6 -1 10 4 10 6 0 11 -4 11 -10z m2201 -404 c18 -20 8 -146 -13
-146 -5 0 -4 9 2 21 12 22 5 95 -11 105 -11 6 -12 45 -1 71 6 14 8 12 10 -12
2 -16 8 -34 13 -39z m-1224 -153 l21 -97 -39 -44 c-44 -50 -76 -128 -85 -205
-11 -97 39 -232 102 -273 14 -10 30 -28 35 -41 12 -33 29 -28 29 10 0 25 -6
36 -29 49 -72 41 -93 164 -43 258 26 50 55 80 66 69 11 -10 66 -292 61 -309
-3 -9 4 -37 15 -61 24 -55 25 -85 2 -98 -68 -36 -187 -13 -253 51 -23 22 -55
70 -72 106 -30 63 -32 74 -32 182 0 123 17 195 72 304 35 71 114 196 122 196
4 0 17 -44 28 -97z m1203 -84 c-4 -22 -11 -43 -15 -47 -4 -4 -5 5 -1 20 3 15
2 29 -4 33 -6 4 -5 15 2 31 16 34 27 12 18 -37z m100 4 c0 -5 -7 -17 -15 -27
-15 -20 -20 -10 -9 18 6 16 24 22 24 9z m-85 -102 c8 -13 -6 -91 -16 -91 -5 0
-6 7 -3 15 5 11 -1 15 -20 15 -18 0 -26 5 -26 18 0 14 2 15 10 2 7 -12 12 -8
21 18 11 32 23 40 34 23z m-132 -62 c-4 -13 -9 -17 -16 -10 -12 12 -1 45 12
37 5 -3 7 -15 4 -27z m-970 -21 c3 -10 7 -10 17 -1 16 15 54 -2 44 -19 -5 -7
-2 -9 8 -5 9 3 23 -2 33 -13 17 -19 16 -20 -9 -30 -15 -5 -30 -10 -34 -10 -3
0 -16 -9 -28 -21 l-23 -21 -10 38 c-22 83 -23 94 -13 94 6 0 12 -6 15 -12z
m1022 -8 c3 -5 1 -10 -4 -10 -6 0 -11 5 -11 10 0 6 2 10 4 10 3 0 8 -4 11 -10z
m-913 -314 c17 -25 -4 -100 -27 -98 -8 1 -33 84 -35 115 0 11 54 -4 62 -17z
m914 -76 c10 0 25 -4 31 -8 15 -10 9 -52 -9 -64 -10 -6 -10 -8 -1 -8 19 0 -17
-68 -39 -76 -13 -4 -17 -11 -13 -25 4 -10 -2 -32 -12 -49 -15 -26 -19 -28 -25
-13 -6 15 -7 15 -7 -4 -1 -27 -26 -53 -51 -53 -10 0 -31 10 -46 23 l-27 23 21
47 c12 26 24 47 27 47 4 0 20 -9 36 -21 28 -19 29 -20 36 -2 4 10 11 21 16 24
5 4 -2 22 -17 41 -26 34 -35 65 -16 53 5 -3 12 7 15 22 4 15 11 39 16 52 9 22
11 22 28 7 10 -9 26 -16 37 -16z m-1815 -87 c24 -57 34 -64 78 -61 49 4 51
-19 2 -32 -22 -6 -47 -20 -55 -32 -9 -12 -17 -20 -20 -17 -15 16 -76 166 -72
176 3 7 15 13 26 13 15 0 26 -13 41 -47z m-351 -40 c12 -32 9 -63 -7 -63 -4 0
-16 19 -26 41 -15 32 -17 42 -6 55 14 17 21 11 39 -33z m1194 -18 c-4 -8 -8
-15 -10 -15 -2 0 -4 7 -4 15 0 8 4 15 10 15 5 0 7 -7 4 -15z m-162 -22 c6 -16
12 -31 12 -35 2 -13 21 -9 22 5 0 6 2 20 2 31 1 12 7 16 17 13 8 -4 17 -2 20
3 12 19 38 11 32 -10 -3 -11 -1 -20 4 -20 12 0 39 -62 39 -90 0 -11 -7 -20
-15 -20 -8 0 -15 7 -15 15 0 8 -7 15 -15 15 -20 0 -19 -17 1 -28 12 -7 15 -17
9 -40 -9 -43 -19 -47 -49 -17 -31 30 -53 32 -82 4 l-22 -20 -36 70 c-40 79
-43 93 -20 112 13 11 14 9 9 -14 -4 -15 -4 -27 1 -27 12 0 44 32 44 45 0 10
19 35 27 35 2 0 9 -12 15 -27z m-637 -83 c4 -7 28 -8 63 -4 l57 6 32 -65 32
-65 -59 -12 c-33 -7 -63 -12 -67 -11 -5 0 -27 37 -50 81 -30 56 -38 80 -28 80
7 0 17 -5 20 -10z m3189 -9 c7 -9 16 -35 20 -58 6 -41 5 -42 -26 -52 -18 -5
-62 -21 -97 -35 -36 -14 -70 -26 -75 -26 -6 1 -33 20 -60 44 l-49 43 23 13
c37 20 218 87 235 87 8 0 21 -7 29 -16z m427 -70 c4 -18 16 -43 28 -55 25 -27
16 -40 -34 -49 -16 -2 -75 -14 -129 -26 -70 -15 -102 -18 -111 -11 -16 14 -45
73 -45 93 0 15 51 33 78 28 8 -1 19 2 25 7 23 18 147 52 172 47 5 -1 12 -16
16 -34z m-2066 -61 c3 -5 1 -10 -4 -10 -6 0 -11 5 -11 10 0 6 2 10 4 10 3 0 8
-4 11 -10z m1366 -12 c43 -24 47 -34 22 -54 -29 -22 -50 -16 -72 20 -38 60
-19 73 50 34z m-82 -22 c25 -40 26 -47 6 -40 -19 8 -82 -32 -90 -57 -4 -10
-25 -29 -47 -40 -36 -19 -41 -19 -57 -5 -25 23 -34 20 -28 -9 6 -35 -22 -50
-59 -30 -35 18 -112 17 -141 -1 -13 -8 -23 -10 -23 -5 0 11 62 51 79 51 7 0
25 10 41 22 34 25 45 19 45 -25 0 -36 30 -47 31 -12 0 11 4 27 8 36 4 10 6 25
4 35 -3 19 47 53 137 92 66 28 70 28 94 -12z m401 -32 c7 -30 9 -58 6 -62 -8
-7 -116 -42 -132 -42 -14 0 -64 74 -64 94 0 14 17 22 100 49 75 24 77 23 90
-39z m558 -48 c2 -32 -2 -64 -7 -69 -6 -6 -37 -14 -68 -19 -32 -4 -80 -12
-108 -18 -27 -5 -71 -12 -97 -16 l-46 -7 -31 49 c-33 53 -38 73 -18 78 6 2 68
14 137 26 69 13 134 27 145 31 11 5 36 7 55 6 l35 -2 3 -59z m-3530 -21 c17
-35 32 -67 32 -70 0 -3 -33 -5 -72 -3 l-73 3 -27 50 c-15 28 -26 55 -24 60 3
12 46 22 96 24 33 0 37 -3 68 -64z m1332 43 c0 -18 -2 -20 -9 -8 -6 8 -7 18
-5 22 9 14 14 9 14 -14z m-840 -9 c0 -11 -4 -18 -10 -14 -5 3 -7 12 -3 20 7
21 13 19 13 -6z m2274 -23 c14 -19 26 -40 26 -47 0 -18 -32 -38 -61 -39 -21 0
-30 9 -50 46 -23 45 -23 46 -4 60 32 23 61 17 89 -20z m361 -57 c14 -22 25
-48 23 -57 -3 -15 -63 -41 -72 -31 -2 2 -6 31 -9 64 -4 54 -3 61 13 62 11 1
29 -14 45 -38z m-137 -56 c-3 -64 -4 -68 -28 -71 -14 -2 -54 -12 -89 -23 -35
-10 -65 -19 -67 -19 -11 0 -65 94 -60 106 7 19 72 19 80 -1 9 -24 24 -17 28
12 2 22 12 29 53 44 85 30 86 29 83 -48z m-518 21 c0 -9 8 -29 17 -45 14 -23
15 -31 4 -41 -10 -11 -18 -6 -42 22 -40 47 -39 80 3 80 10 0 18 -7 18 -16z
m220 -3 c0 -6 -4 -13 -10 -16 -5 -3 -10 1 -10 9 0 9 5 16 10 16 6 0 10 -4 10
-9z m-276 -55 c14 -19 26 -39 26 -44 0 -6 -18 -19 -40 -30 l-40 -19 0 28 c0
15 -5 40 -10 55 -8 21 -8 29 2 36 23 14 35 9 62 -26z m-304 7 c-1 -43 -13 -53
-61 -53 -27 0 -49 4 -49 9 0 14 63 51 88 51 12 0 22 -3 22 -7z m-1985 -117
c24 -53 20 -86 -10 -86 -8 0 -15 -4 -15 -9 0 -5 -30 -16 -67 -24 -38 -9 -76
-19 -85 -22 -13 -5 -18 -2 -18 9 0 9 5 16 10 16 6 0 10 8 10 17 0 15 2 14 15
-3 14 -18 14 -18 15 6 1 24 1 25 16 5 14 -19 15 -19 21 3 5 21 6 21 19 5 12
-17 13 -16 14 7 1 23 2 24 14 8 18 -24 26 -23 26 4 0 21 0 21 15 2 14 -19 14
-19 15 1 0 32 -11 65 -20 60 -5 -3 -12 0 -15 6 -5 7 -12 2 -19 -13 -7 -15 -21
-23 -37 -24 -14 0 -40 -6 -57 -13 -18 -8 -35 -11 -39 -7 -3 3 -1 6 5 6 7 0 12
7 12 16 0 8 -5 12 -11 9 -7 -5 -9 11 -7 47 l3 53 58 3 c40 2 60 8 64 18 6 17
30 -17 68 -100z m1525 89 c0 -8 -4 -15 -10 -15 -5 0 -7 7 -4 15 4 8 8 15 10
15 2 0 4 -7 4 -15z m1560 -31 c16 -25 26 -52 24 -59 -5 -12 -55 -28 -126 -39
l-28 -5 0 64 0 64 43 9 c23 6 45 10 50 11 4 1 21 -20 37 -45z m-600 7 c0 -10
10 -30 21 -45 24 -30 15 -51 -17 -44 -12 2 -21 15 -25 38 -3 19 -10 43 -14 53
-5 13 -2 17 14 17 14 0 21 -6 21 -19z m-65 -41 c8 -16 15 -39 15 -51 0 -18 -2
-20 -16 -8 -22 18 -46 68 -39 79 11 17 24 11 40 -20z m455 -29 l0 -59 -37 -7
c-21 -3 -48 -9 -60 -12 -17 -4 -27 4 -48 36 -15 22 -25 47 -22 54 5 14 100 44
145 46 20 1 22 -3 22 -58z m-220 39 c0 -5 -4 -10 -10 -10 -5 0 -10 5 -10 10 0
6 5 10 10 10 6 0 10 -4 10 -10z m-1124 -91 c15 -53 15 -57 -5 -90 l-21 -34 1
110 c1 61 3 101 5 90 3 -11 12 -45 20 -76z m850 44 l25 -43 -77 -35 c-42 -19
-83 -35 -90 -35 -21 0 -37 50 -27 79 9 27 98 82 126 78 10 -1 29 -21 43 -44z
m-1299 31 c-3 -3 -12 -4 -19 -1 -8 3 -5 6 6 6 11 1 17 -2 13 -5z m-989 -197
c29 -56 84 -162 122 -235 83 -160 86 -168 64 -176 -12 -4 -34 10 -73 47 -100
95 -222 167 -343 202 l-58 16 0 43 c0 24 6 48 13 53 6 5 50 20 95 33 85 24
124 46 102 60 -8 5 -8 14 1 33 7 15 15 27 18 27 3 0 30 -46 59 -103z m-108 43
c0 -5 -7 -10 -16 -10 -8 0 -12 5 -9 10 3 6 10 10 16 10 5 0 9 -4 9 -10z m-40
-9 c0 -5 -9 -11 -20 -14 -11 -3 -20 -1 -20 3 0 5 8 11 18 13 9 3 18 5 20 6 1
0 2 -3 2 -8z m997 -23 c-3 -7 -5 -2 -5 12 0 14 2 19 5 13 2 -7 2 -19 0 -25z
m713 -37 c0 -11 -3 -11 -15 -1 -8 7 -15 24 -15 39 l1 26 14 -25 c8 -14 14 -31
15 -39z m-1773 33 c-3 -3 -12 -4 -19 -1 -8 3 -5 6 6 6 11 1 17 -2 13 -5z
m1050 -51 c-3 -10 -5 -4 -5 12 0 17 2 24 5 18 2 -7 2 -21 0 -30z m777 14 c17
-17 9 -37 -15 -37 -19 0 -27 29 -12 43 9 10 13 9 27 -6z m-787 -59 c-3 -8 -6
-5 -6 6 -1 11 2 17 5 13 3 -3 4 -12 1 -19z m-132 -9 c-10 -15 -25 -10 -19 6 4
8 10 12 15 9 5 -3 7 -10 4 -15z m922 -7 c17 -11 43 -88 43 -129 0 -26 5 -36
20 -40 30 -8 25 -43 -12 -83 l-31 -35 6 33 c7 35 -5 43 -23 15 -8 -14 -9 1 -5
57 5 54 2 89 -9 125 -21 68 -20 77 11 57z m-2631 -26 c4 -17 -5 -44 -29 -89
-19 -36 -40 -89 -47 -117 -8 -33 -15 -47 -20 -40 -8 14 -8 14 -13 -90 -5 -112
-52 -135 -89 -45 -18 45 -20 74 -6 92 6 7 8 20 4 28 -6 17 22 80 57 127 18 24
19 33 10 58 -10 28 -9 30 46 63 68 42 79 44 87 13z m2002 -12 c16 -5 22 -14
22 -35 l0 -29 -76 0 c-90 0 -191 -22 -287 -61 -38 -16 -71 -29 -74 -29 -2 0 6
18 17 39 16 32 30 43 75 60 75 28 128 41 210 50 39 5 75 9 80 10 6 0 20 -2 33
-5z m-1960 -67 c2 -12 -3 -17 -17 -17 -23 0 -24 1 -15 25 8 19 28 15 32 -8z
m787 -10 c105 -43 205 -109 283 -186 79 -80 87 -94 63 -115 -16 -15 -20 -13
-50 30 -66 92 -220 197 -348 239 -45 14 -53 20 -53 41 0 31 9 30 105 -9z
m-505 -25 c0 -22 -7 -32 -33 -44 -55 -26 -142 -113 -175 -176 -115 -215 -63
-473 135 -669 53 -52 83 -89 83 -103 l0 -21 -28 20 c-16 11 -61 53 -101 93
-141 144 -219 361 -192 535 13 85 66 194 125 260 43 48 157 133 177 133 5 0 9
-13 9 -28z m-16 -115 c-42 -22 -118 -113 -146 -174 -22 -46 -33 -89 -39 -147
l-8 -81 4 85 c6 155 54 256 159 332 36 26 41 27 45 12 1 -9 -5 -22 -15 -27z
m2476 35 c0 -5 -7 -17 -15 -28 -23 -31 -19 -47 11 -40 24 6 25 5 23 -31 -2
-21 1 -44 5 -52 12 -19 9 -150 -4 -166 -6 -7 -17 -36 -26 -64 -8 -28 -18 -51
-22 -51 -4 0 -18 19 -31 43 -21 39 -22 47 -12 101 16 89 15 166 -4 166 -22 0
-18 34 6 56 12 10 27 31 35 46 14 26 34 38 34 20z m-2826 -33 c-3 -6 0 -15 7
-20 12 -7 11 -11 -3 -26 -17 -16 -18 -16 -18 20 0 20 5 37 11 37 5 0 7 -5 3
-11z m2527 -106 c38 -83 53 -206 38 -328 -11 -93 -55 -244 -89 -305 l-19 -35
-1 65 c0 37 9 96 20 135 30 104 36 224 15 315 -10 41 -20 116 -22 165 -3 85
-3 89 13 70 9 -11 29 -48 45 -82z m-2451 60 c0 -5 -7 -17 -15 -27 -8 -11 -15
-28 -15 -38 0 -10 -4 -18 -9 -18 -4 0 -11 -22 -14 -49 -3 -27 -17 -68 -32 -90
-25 -41 -45 -53 -45 -28 -1 6 -7 1 -15 -13 l-13 -25 -11 28 c-22 57 -6 91 21
47 21 -34 30 -22 25 33 -8 93 43 183 106 186 9 1 17 -2 17 -6z m246 -74 c-50
-56 -79 -124 -92 -214 -7 -48 -9 -53 -12 -27 -4 41 22 172 43 213 9 16 35 49
58 72 34 34 42 38 45 24 2 -10 -16 -39 -42 -68z m558 23 c103 -62 217 -193
215 -248 0 -11 -9 0 -20 26 -42 94 -126 177 -234 231 -44 22 -66 37 -50 33 17
-4 57 -23 89 -42z m823 32 c-3 -3 -12 -4 -19 -1 -8 3 -5 6 6 6 11 1 17 -2 13
-5z m357 -14 c17 -17 2 -18 -63 -5 -126 27 -293 -26 -427 -133 -298 -241 -337
-651 -74 -791 104 -56 256 -54 389 5 30 14 62 23 71 21 19 -5 -78 -50 -156
-73 -43 -12 -82 -15 -153 -12 -85 5 -103 9 -161 40 -84 45 -142 114 -170 205
-44 142 -35 237 35 378 73 147 169 239 333 319 59 29 88 39 177 60 32 8 188
-3 199 -14z m-418 -13 c-10 -7 -49 -35 -87 -64 -51 -39 -66 -46 -58 -30 10 22
58 57 124 91 35 18 48 20 21 3z m-808 -24 c102 -50 204 -165 232 -263 5 -16 5
-32 1 -35 -5 -2 -14 15 -20 38 -29 97 -123 202 -226 250 -30 15 -55 29 -55 32
0 9 13 5 68 -22z m-492 -70 c-14 -21 -33 -67 -42 -103 -21 -84 -9 -168 41
-264 41 -81 40 -100 -1 -29 -45 76 -63 140 -64 224 0 90 21 166 58 210 37 44
43 15 8 -38z m1687 56 c20 -5 37 -16 37 -24 0 -12 -6 -12 -41 0 -23 8 -74 15
-113 15 -124 0 -238 -47 -341 -143 -131 -119 -202 -276 -193 -422 9 -139 80
-234 206 -276 65 -22 96 -22 232 -4 73 10 26 -12 -54 -26 -140 -23 -247 9
-329 101 -54 60 -76 119 -84 221 -17 223 159 455 414 544 75 27 197 33 266 14z
m-2681 -43 c-28 -30 -39 -50 -35 -64 5 -20 -28 -95 -47 -107 -16 -10 -12 -22
10 -28 16 -4 20 -14 20 -45 0 -23 -4 -44 -10 -47 -17 -10 -12 -48 5 -41 19 7
35 -23 35 -65 0 -34 24 -69 47 -69 7 0 13 -9 13 -20 0 -18 -11 -25 -33 -21 -4
1 -17 -3 -28 -9 -15 -9 -20 -7 -25 7 -3 10 -10 25 -15 33 -15 25 -69 139 -69
146 0 3 -7 22 -16 42 -31 71 -43 98 -54 127 -11 27 -40 128 -53 183 l-5 22
150 0 151 0 -41 -44z m1497 9 c100 -59 170 -155 190 -259 7 -38 4 -64 -15
-132 -12 -47 -26 -116 -30 -155 -7 -71 -25 -100 -64 -98 -18 0 -160 171 -160
193 0 8 17 24 38 35 106 54 107 198 1 283 -37 29 -39 35 -39 85 l0 53 48 -24
c63 -32 126 -97 160 -166 23 -46 27 -68 26 -134 0 -57 2 -72 9 -55 15 41 3
149 -23 204 -31 63 -106 138 -170 167 -28 13 -50 26 -50 30 0 15 19 8 79 -27z
m476 5 c4 -13 -6 -36 -33 -72 -162 -222 -223 -447 -178 -660 22 -103 61 -175
135 -249 101 -100 201 -139 356 -139 50 1 117 7 150 14 142 31 311 120 424
223 55 50 76 63 101 63 l33 0 -25 -32 c-48 -62 -200 -177 -303 -228 -307 -152
-604 -126 -788 69 -110 117 -151 221 -150 386 0 150 33 287 102 420 39 77 145
225 160 225 5 0 12 -9 16 -20z m706 -27 c22 -8 39 -21 39 -29 0 -19 -10 -18
-40 4 -20 13 -46 17 -130 17 -99 0 -109 -2 -172 -34 -37 -19 -91 -56 -120 -83
l-53 -49 48 35 c26 19 82 52 124 73 72 36 83 38 167 38 75 0 98 -4 134 -23
l42 -22 0 -186 0 -185 -104 -127 c-57 -71 -110 -133 -118 -139 -7 -5 -41 -16
-76 -22 -117 -22 -235 23 -285 111 -37 62 -52 152 -38 218 6 29 10 55 7 57 -2
2 -9 -19 -15 -47 -34 -157 20 -288 140 -340 46 -19 66 -22 146 -18 84 4 92 2
78 -12 -12 -11 -38 -15 -108 -15 -99 0 -138 14 -205 70 -81 68 -114 232 -73
358 44 131 130 232 261 305 124 70 250 86 351 45z m-1675 -94 c-21 -70 -20
-124 4 -200 10 -35 17 -65 15 -68 -3 -2 -15 18 -27 45 -31 66 -32 196 -3 269
25 65 33 30 11 -46z m972 -22 c-140 -206 -185 -452 -115 -627 14 -36 20 -56
12 -46 -21 28 -53 131 -65 210 -14 88 -1 179 41 288 37 95 148 267 159 247 5
-8 -7 -35 -32 -72z m27 -82 c-65 -115 -86 -183 -92 -301 -9 -161 35 -273 140
-355 57 -46 50 -53 -10 -9 -100 74 -162 216 -163 370 0 101 49 242 120 346 52
75 56 38 5 -51z m-983 -7 c2 -20 0 -34 -4 -32 -4 3 -7 26 -7 52 1 49 5 42 11
-20z m431 -22 c36 -54 29 -124 -14 -147 -18 -9 -19 -4 -19 81 0 49 4 90 9 90
5 0 16 -11 24 -24z m-566 -18 c-3 -7 -5 -2 -5 12 0 14 2 19 5 13 2 -7 2 -19 0
-25z m98 -208 c3 -5 1 -10 -4 -10 -6 0 -11 5 -11 10 0 6 2 10 4 10 3 0 8 -4
11 -10z m-1112 -43 c-3 -5 1 -13 8 -18 10 -6 10 -9 2 -9 -7 0 -17 8 -22 18 -7
14 -6 19 4 19 8 0 11 -5 8 -10z m254 -41 l22 -23 -27 -32 c-23 -27 -33 -32
-62 -29 -28 2 -39 10 -57 43 -29 52 -29 53 10 58 75 9 92 7 114 -17z m-359
-74 c18 -31 21 -47 14 -54 -13 -13 -149 -26 -274 -27 l-88 -1 -20 41 c-32 62
-25 73 45 79 33 3 114 5 180 5 l120 0 23 -43z m172 -2 c0 -5 -5 -10 -11 -10
-5 0 -7 5 -4 10 3 6 8 10 11 10 2 0 4 -4 4 -10z m550 -5 c0 -8 -13 -21 -30
-30 -48 -25 -56 -17 -14 15 46 35 44 34 44 15z m1150 -25 c0 -25 -27 -37 -43
-21 -9 10 -8 16 7 27 27 19 36 18 36 -6z m-1680 0 c0 -5 -7 -7 -15 -4 -8 4
-15 8 -15 10 0 2 7 4 15 4 8 0 15 -4 15 -10z m499 -87 c-1 -40 -7 -61 -18 -70
-20 -14 -31 -8 -31 18 0 11 -12 31 -26 44 l-25 24 22 12 c13 6 34 15 48 20 14
4 27 8 28 8 2 1 2 -25 2 -56z m-609 32 c0 -8 -4 -15 -10 -15 -5 0 -10 7 -10
15 0 8 5 15 10 15 6 0 10 -7 10 -15z m-13 -50 c24 -48 26 -57 13 -66 -21 -13
-62 -1 -79 24 -16 22 -16 22 -21 -8 -5 -28 -9 -31 -70 -41 -36 -7 -92 -12
-126 -13 l-60 -1 -22 45 c-38 78 -45 72 128 94 47 6 96 13 110 15 14 2 42 4
63 5 36 1 38 -1 64 -54z m175 11 c18 -37 10 -67 -12 -42 -7 9 -10 22 -7 30 3
7 -1 23 -9 35 -12 17 -12 20 -1 15 7 -2 21 -20 29 -38z m1638 29 c0 -8 -2 -15
-4 -15 -2 0 -6 7 -10 15 -3 8 -1 15 4 15 6 0 10 -7 10 -15z m-962 -36 c-3 -22
-4 -22 -21 -5 -14 14 -15 21 -6 32 16 19 32 3 27 -27z m-1263 -39 c39 -76 38
-77 -67 -85 -51 -3 -138 -5 -193 -3 l-100 3 -3 53 c-5 82 -4 82 179 82 l159 0
25 -50z m882 10 c6 -31 17 -39 27 -17 5 9 7 9 12 -1 3 -6 9 -10 14 -7 4 3 13
-2 20 -10 10 -12 9 -16 -1 -19 -8 -3 -46 -15 -86 -29 -40 -13 -76 -21 -80 -18
-13 9 -53 69 -53 79 0 11 90 51 118 51 17 1 24 -6 29 -29z m373 -49 c-32 -22
-233 -131 -242 -131 -5 0 -8 13 -8 30 0 23 -7 33 -30 45 -27 14 -30 14 -30 0
0 -9 7 -31 15 -50 l14 -35 -36 -15 c-19 -8 -39 -15 -43 -15 -14 0 -81 83 -73
90 4 4 33 15 63 25 30 10 60 21 65 25 23 16 103 38 138 39 28 0 52 10 85 35
l47 34 29 -31 29 -31 -23 -15z m990 18 c0 -16 -146 -49 -218 -49 -52 0 -221
33 -248 48 -11 6 64 9 225 9 132 0 241 -4 241 -8z m1070 6 c0 -3 -44 -27 -97
-54 -108 -54 -222 -91 -274 -90 -24 0 -14 5 36 15 68 15 198 71 260 112 27 19
75 29 75 17z m66 -29 c-42 -36 -243 -143 -252 -134 -3 4 5 9 18 13 29 9 181
111 204 136 9 11 29 19 43 19 25 -1 25 -1 -13 -34z m-2739 7 c4 -9 20 -28 36
-43 17 -15 27 -32 24 -37 -10 -17 -96 -43 -138 -43 -27 0 -40 6 -51 22 -15 22
-15 22 -10 -10 2 -18 0 -32 -6 -32 -5 0 -23 -3 -40 -6 -27 -6 -32 -2 -56 38
-30 51 -33 73 -10 82 23 9 74 7 74 -2 0 -5 6 -17 14 -28 13 -18 14 -17 13 16
l-2 34 65 12 c36 6 69 12 73 13 4 0 11 -7 14 -16z m-311 -51 c13 -8 54 -86 54
-101 0 -12 -71 -27 -167 -36 l-71 -7 -21 40 c-30 60 -28 80 12 87 131 24 176
28 193 17z m-256 -74 c37 -82 40 -80 -150 -97 -115 -11 -130 -7 -130 38 0 15
-7 36 -15 47 -34 45 -19 49 173 52 l103 2 19 -42z m2679 26 c2 -2 2 -7 -1 -10
-4 -3 -19 2 -35 10 l-28 16 30 -6 c17 -4 32 -8 34 -10z m-2010 -21 c-4 -22 2
-33 13 -27 8 5 9 2 5 -10 -5 -14 -3 -17 8 -12 14 5 20 -5 16 -27 -1 -5 3 -6 8
-3 5 4 12 2 16 -3 6 -12 -143 -61 -184 -61 -22 0 -31 8 -50 46 -14 31 -19 50
-12 57 5 5 43 18 83 28 84 20 98 22 97 12z m2084 0 c-7 -2 -19 -2 -25 0 -7 3
-2 5 12 5 14 0 19 -2 13 -5z m70 -10 c-7 -2 -19 -2 -25 0 -7 3 -2 5 12 5 14 0
19 -2 13 -5z m204 -29 c-3 -3 -12 -4 -19 -1 -8 3 -5 6 6 6 11 1 17 -2 13 -5z
m-2550 -43 c13 -19 23 -40 23 -47 0 -25 -45 -14 -85 21 -39 34 -40 35 -20 50
29 23 56 15 82 -24z m-93 -31 c25 -28 46 -55 46 -60 0 -17 -243 -69 -272 -57
-9 3 -26 26 -38 52 -17 36 -20 49 -11 58 10 10 87 29 222 56 3 0 27 -22 53
-49z m1339 0 c-8 -31 -23 -34 -23 -6 0 16 6 26 14 26 9 0 12 -7 9 -20z"/>
<path d="M3520 5960 c0 -5 5 -10 10 -10 6 0 10 5 10 10 0 6 -4 10 -10 10 -5 0
-10 -4 -10 -10z"/>
<path d="M3914 5943 c-3 -10 -10 -29 -15 -42 -13 -32 0 -45 95 -93 45 -22 111
-58 148 -79 36 -22 71 -39 76 -39 5 0 12 10 15 23 3 12 9 36 15 53 l10 30 -92
46 c-120 61 -237 118 -242 118 -3 0 -7 -8 -10 -17z"/>
<path d="M3557 5943 c-4 -3 -7 -18 -7 -32 0 -15 -8 -31 -19 -38 -10 -6 -22
-29 -26 -50 -4 -21 -13 -53 -21 -72 -11 -26 -18 -32 -35 -28 -18 5 -20 2 -14
-16 24 -75 5 -137 -40 -137 -28 0 -33 -17 -9 -34 14 -11 14 -27 4 -152 -11
-122 -15 -142 -36 -167 -26 -30 -24 -49 4 -45 12 2 18 -5 20 -24 2 -16 7 -28
11 -28 4 0 24 73 45 163 21 89 58 245 83 347 76 316 72 298 59 310 -7 5 -16 7
-19 3z"/>
<path d="M4245 5681 c-3 -5 -1 -12 5 -16 5 -3 10 1 10 9 0 18 -6 21 -15 7z"/>
<path d="M3395 5671 c-3 -5 -1 -12 5 -16 5 -3 10 1 10 9 0 18 -6 21 -15 7z"/>
<path d="M4366 5365 c-17 -17 -11 -45 10 -45 16 0 45 40 38 52 -8 13 -31 9
-48 -7z"/>
<path d="M4425 5340 c-15 -17 -16 -24 -7 -45 22 -47 74 -17 56 32 -12 34 -26
38 -49 13z"/>
<path d="M4370 5270 c0 -5 5 -10 10 -10 6 0 10 5 10 10 0 6 -4 10 -10 10 -5 0
-10 -4 -10 -10z"/>
<path d="M4773 5229 c-24 -9 -31 -29 -10 -29 19 0 40 16 36 28 -3 6 -13 6 -26
1z"/>
<path d="M4420 5206 c0 -9 7 -16 16 -16 17 0 14 22 -4 28 -7 2 -12 -3 -12 -12z"/>
<path d="M3190 5166 c0 -17 14 -29 23 -20 8 8 -3 34 -14 34 -5 0 -9 -6 -9 -14z"/>
<path d="M4540 5139 c0 -24 23 -21 28 4 2 10 -3 17 -12 17 -10 0 -16 -9 -16
-21z"/>
<path d="M4940 5120 c0 -5 5 -10 10 -10 6 0 10 5 10 10 0 6 -4 10 -10 10 -5 0
-10 -4 -10 -10z"/>
<path d="M3160 5105 c0 -8 5 -15 10 -15 6 0 10 7 10 15 0 8 -4 15 -10 15 -5 0
-10 -7 -10 -15z"/>
<path d="M3276 5093 c-12 -12 -6 -33 9 -33 8 0 15 6 15 14 0 17 -14 28 -24 19z"/>
<path d="M4481 5069 c-9 -26 -8 -37 4 -56 20 -30 40 -29 61 3 16 24 16 27 -3
52 -29 39 -49 39 -62 1z"/>
<path d="M3363 5069 c-16 -16 -17 -49 -3 -49 13 0 23 24 18 45 -2 13 -5 14
-15 4z"/>
<path d="M5134 4972 c4 -3 14 -7 22 -8 9 -1 13 0 10 4 -4 3 -14 7 -22 8 -9 1
-13 0 -10 -4z"/>
<path d="M4444 4886 c-8 -33 1 -46 32 -46 22 0 25 4 22 33 -2 24 -8 33 -25 35
-17 3 -24 -3 -29 -22z"/>
<path d="M4701 4897 c-7 -10 -28 -17 -47 -17 -23 0 -43 -9 -68 -34 -39 -36
-44 -59 -22 -111 13 -31 13 -39 0 -71 -18 -42 -13 -69 17 -107 27 -35 60 -34
100 1 24 21 31 36 31 64 0 22 6 39 14 42 8 3 14 16 14 30 0 14 4 36 10 51 8
20 6 34 -7 58 -9 18 -19 50 -22 71 -5 35 -8 37 -20 23z"/>
<path d="M4512 4759 c2 -7 10 -15 17 -17 8 -3 12 1 9 9 -2 7 -10 15 -17 17 -8
3 -12 -1 -9 -9z"/>
<path d="M4120 4615 c0 -8 5 -15 10 -15 6 0 10 7 10 15 0 8 -4 15 -10 15 -5 0
-10 -7 -10 -15z"/>
<path d="M4406 4583 c-8 -21 8 -38 29 -29 13 4 14 10 5 26 -13 24 -26 26 -34
3z"/>
<path d="M4310 4515 c0 -14 2 -25 4 -25 2 0 6 11 8 25 3 14 1 25 -3 25 -5 0
-9 -11 -9 -25z"/>
<path d="M4535 4460 c-7 -12 2 -30 16 -30 12 0 12 27 0 35 -5 3 -12 1 -16 -5z"/>
<path d="M4796 4444 c-3 -9 -6 -29 -6 -45 0 -17 -6 -42 -14 -57 -21 -40 -25
-109 -6 -97 6 4 10 -7 10 -25 0 -33 15 -70 34 -82 22 -15 26 -7 12 21 -17 33
-24 179 -11 254 5 30 4 47 -3 47 -5 0 -13 -7 -16 -16z"/>
<path d="M4336 4351 c-3 -5 -12 -33 -19 -62 -12 -44 -12 -57 0 -81 17 -33 28
-37 20 -8 -3 11 1 26 8 34 20 20 30 66 15 66 -9 0 -11 10 -6 30 5 28 -6 41
-18 21z"/>
<path d="M4660 4315 c0 -8 7 -15 15 -15 8 0 15 7 15 15 0 8 -7 15 -15 15 -8 0
-15 -7 -15 -15z"/>
<path d="M4424 4276 c-8 -20 16 -68 36 -74 16 -6 3 58 -16 77 -11 13 -14 12
-20 -3z"/>
<path d="M4992 4208 c2 -6 10 -14 16 -16 7 -2 10 2 6 12 -7 18 -28 22 -22 4z"/>
<path d="M4260 4160 c0 -11 5 -20 10 -20 6 0 10 9 10 20 0 11 -4 20 -10 20 -5
0 -10 -9 -10 -20z"/>
<path d="M4310 4087 c0 -18 40 -33 65 -23 28 10 17 29 -14 23 -15 -3 -33 -1
-40 6 -8 8 -11 7 -11 -6z"/>
<path d="M4450 4002 c0 -4 5 -13 12 -20 9 -9 7 -12 -11 -12 -14 0 -21 -5 -18
-12 2 -7 9 -12 15 -11 5 1 12 -11 16 -27 4 -22 11 -30 27 -30 18 0 20 4 14 33
-9 41 -33 87 -45 87 -6 0 -10 -4 -10 -8z"/>
<path d="M4306 3871 c-4 -7 -5 -15 -2 -18 9 -9 19 4 14 18 -4 11 -6 11 -12 0z"/>
<path d="M4320 3831 c0 -6 5 -13 10 -16 6 -3 10 1 10 9 0 9 -4 16 -10 16 -5 0
-10 -4 -10 -9z"/>
<path d="M4380 3763 c0 -22 88 -163 102 -163 12 0 9 42 -5 70 -7 13 -23 27
-37 30 -14 3 -27 15 -29 25 -2 11 -10 29 -17 40 -14 19 -14 19 -14 -2z"/>
<path d="M5137 3654 c-14 -15 -6 -34 14 -34 14 0 19 5 17 17 -3 18 -20 27 -31
17z"/>
<path d="M5130 3500 c0 -5 7 -10 15 -10 8 0 15 5 15 10 0 6 -7 10 -15 10 -8 0
-15 -4 -15 -10z"/>
<path d="M4824 3473 c5 -15 1 -26 -16 -38 -23 -17 -23 -17 10 -10 30 6 32 5
33 -22 1 -24 2 -23 11 12 6 22 16 43 22 47 6 4 0 8 -14 8 -15 0 -32 6 -39 13
-11 10 -12 8 -7 -10z"/>
<path d="M5015 3437 c-20 -49 -44 -55 -75 -18 l-25 30 -23 -19 -24 -20 24 -32
c22 -31 23 -32 26 -10 2 12 7 22 11 22 11 0 51 -45 51 -58 0 -19 -20 -24 -37
-10 -14 11 -16 11 -8 -2 20 -36 39 -50 58 -44 15 5 28 -3 53 -32 51 -60 40
-25 -16 50 -41 55 -47 68 -33 73 11 4 25 -4 44 -25 19 -21 29 -27 33 -17 3 8
13 11 24 8 17 -4 21 2 27 37 4 23 13 44 21 47 25 9 15 31 -18 36 -18 4 -48 9
-66 13 -30 6 -33 4 -47 -29z"/>
<path d="M4713 3413 c-24 -8 -43 -19 -43 -23 0 -13 96 -80 114 -80 10 0 16 9
16 25 0 25 -30 96 -39 94 -3 -1 -25 -8 -48 -16z"/>
<path d="M4757 3195 c-10 -9 -17 -20 -17 -25 0 -4 -9 -10 -20 -13 -25 -6 -34
-29 -26 -63 6 -24 11 -26 40 -21 28 4 38 1 57 -20 61 -66 148 -93 184 -57 21
21 13 56 -23 108 -55 78 -160 127 -195 91z"/>
<path d="M4992 3148 c-18 -18 -14 -38 7 -38 23 0 34 25 17 39 -9 7 -16 7 -24
-1z"/>
<path d="M5100 3030 c0 -15 5 -20 18 -18 9 2 17 10 17 18 0 8 -8 16 -17 18
-13 2 -18 -3 -18 -18z"/>
<path d="M4767 3026 c-4 -10 -7 -37 -7 -62 0 -24 -4 -63 -9 -86 -6 -24 -15
-70 -20 -103 -6 -33 -14 -71 -16 -85 -3 -14 2 -7 12 15 10 22 26 52 36 65 9
13 17 30 17 37 0 9 8 11 24 7 19 -4 27 0 36 16 10 19 9 27 -7 48 -23 31 -43
39 -43 18 0 -9 -4 -16 -10 -16 -13 0 -13 7 5 55 18 51 18 67 2 89 -13 18 -14
18 -20 2z"/>
<path d="M4866 2973 c-11 -11 -6 -23 9 -23 8 0 15 4 15 9 0 13 -16 22 -24 14z"/>
<path d="M5191 2926 c-6 -7 -21 -12 -31 -9 -13 3 -22 -1 -26 -12 -10 -25 10
-39 35 -26 17 10 21 9 21 -3 0 -14 36 -46 52 -46 11 0 10 34 -1 46 -5 5 -11
20 -13 33 -4 29 -21 37 -37 17z"/>
<path d="M5270 2892 c0 -12 19 -26 26 -19 2 2 -2 10 -11 17 -9 8 -15 8 -15 2z"/>
<path d="M4885 2820 c3 -5 8 -10 11 -10 2 0 4 5 4 10 0 6 -5 10 -11 10 -5 0
-7 -4 -4 -10z"/>
<path d="M5285 2800 c3 -5 8 -10 11 -10 2 0 4 5 4 10 0 6 -5 10 -11 10 -5 0
-7 -4 -4 -10z"/>
<path d="M4620 2790 c0 -5 7 -10 15 -10 8 0 15 5 15 10 0 6 -7 10 -15 10 -8 0
-15 -4 -15 -10z"/>
<path d="M5205 2780 c-10 -16 16 -43 28 -31 11 11 2 41 -12 41 -5 0 -13 -5
-16 -10z"/>
<path d="M4846 2715 c-3 -9 1 -18 10 -22 19 -7 28 2 21 22 -8 19 -23 19 -31 0z"/>
<path d="M4632 2688 c3 -7 15 -14 29 -16 24 -4 24 -3 4 12 -24 19 -38 20 -33
4z"/>
<path d="M4872 2608 c3 -7 13 -17 24 -23 11 -5 31 -20 44 -32 13 -13 27 -23
32 -23 16 0 8 41 -9 47 -10 3 -26 14 -36 25 -20 20 -61 25 -55 6z"/>
<path d="M4770 2440 c0 -5 5 -10 10 -10 6 0 10 5 10 10 0 6 -4 10 -10 10 -5 0
-10 -4 -10 -10z"/>
<path d="M4530 2371 c0 -12 46 -48 70 -56 10 -3 23 -18 28 -33 5 -15 19 -38
30 -52 l21 -25 1 23 c0 33 -26 80 -50 87 -11 3 -20 11 -20 16 0 16 -40 49 -60
49 -11 0 -20 -4 -20 -9z"/>
<path d="M4559 2211 c-27 -26 -49 -53 -49 -60 0 -25 28 -9 59 34 18 25 36 45
41 45 4 0 10 7 14 15 11 29 -17 15 -65 -34z"/>
<path d="M1895 2200 c-3 -5 -1 -10 4 -10 6 0 11 5 11 10 0 6 -2 10 -4 10 -3 0
-8 -4 -11 -10z"/>
<path d="M4762 2149 c2 -7 10 -15 17 -17 8 -3 12 1 9 9 -2 7 -10 15 -17 17 -8
3 -12 -1 -9 -9z"/>
<path d="M4730 2120 c0 -5 5 -10 10 -10 6 0 10 5 10 10 0 6 -4 10 -10 10 -5 0
-10 -4 -10 -10z"/>
<path d="M4414 2084 c3 -8 6 -18 6 -20 0 -2 5 -4 10 -4 16 0 11 27 -6 34 -12
5 -15 2 -10 -10z"/>
<path d="M4176 2053 c-11 -11 -6 -23 9 -23 8 0 15 4 15 9 0 13 -16 22 -24 14z"/>
<path d="M4320 2050 c0 -8 9 -26 20 -40 16 -20 19 -21 13 -5 -10 32 -33 62
-33 45z"/>
<path d="M2801 2031 c-8 -5 -9 -11 -3 -15 5 -3 15 1 22 9 14 16 3 20 -19 6z"/>
<path d="M3958 1993 c7 -3 16 -2 19 1 4 3 -2 6 -13 5 -11 0 -14 -3 -6 -6z"/>
<path d="M2020 1971 c-14 -28 -12 -51 4 -51 19 0 46 38 39 56 -7 20 -31 17
-43 -5z"/>
<path d="M2745 1980 c3 -5 8 -10 11 -10 2 0 4 5 4 10 0 6 -5 10 -11 10 -5 0
-7 -4 -4 -10z"/>
<path d="M4235 1979 c-4 -6 -5 -13 -2 -16 7 -7 27 6 27 18 0 12 -17 12 -25 -2z"/>
<path d="M1580 1955 c14 -16 40 -20 40 -6 0 9 -24 21 -42 21 -6 0 -6 -6 2 -15z"/>
<path d="M4500 1966 c0 -15 24 -66 31 -66 12 0 11 6 -6 40 -13 26 -25 38 -25
26z"/>
<path d="M4170 1950 c0 -5 5 -10 10 -10 6 0 10 5 10 10 0 6 -4 10 -10 10 -5 0
-10 -4 -10 -10z"/>
<path d="M1684 1915 c26 -19 42 -19 26 0 -7 8 -20 15 -29 15 -13 -1 -13 -3 3
-15z"/>
<path d="M4060 1899 c-14 -26 11 -69 40 -69 31 0 45 36 25 66 -19 29 -50 31
-65 3z"/>
<path d="M2220 1884 c0 -8 5 -12 10 -9 6 4 8 11 5 16 -9 14 -15 11 -15 -7z"/>
<path d="M1730 1881 c0 -4 5 -22 11 -38 7 -23 18 -32 41 -37 56 -11 57 -6 9
39 -48 45 -61 53 -61 36z"/>
<path d="M2845 1880 c3 -5 8 -10 11 -10 2 0 4 5 4 10 0 6 -5 10 -11 10 -5 0
-7 -4 -4 -10z"/>
<path d="M3760 1836 c0 -9 5 -16 10 -16 6 0 10 4 10 9 0 6 -4 13 -10 16 -5 3
-10 -1 -10 -9z"/>
<path d="M2095 1823 c-5 -16 -16 -23 -43 -25 -27 -2 -38 -8 -40 -22 -3 -11 0
-16 7 -11 6 3 25 -5 42 -19 38 -32 47 -32 112 0 57 29 54 36 -25 49 -27 4 -38
11 -41 28 l-4 22 -8 -22z"/>
<path d="M4160 1790 c0 -5 7 -10 15 -10 8 0 15 5 15 10 0 6 -7 10 -15 10 -8 0
-15 -4 -15 -10z"/>
<path d="M2847 1773 c-11 -11 -8 -20 8 -20 8 0 15 6 15 14 0 14 -12 17 -23 6z"/>
<path d="M1880 1766 c0 -9 30 -14 35 -6 4 6 -3 10 -14 10 -12 0 -21 -2 -21 -4z"/>
<path d="M3010 1726 c0 -8 5 -18 10 -21 6 -3 10 3 10 14 0 12 -4 21 -10 21 -5
0 -10 -6 -10 -14z"/>
<path d="M4205 1720 c-3 -5 -1 -10 4 -10 6 0 11 5 11 10 0 6 -2 10 -4 10 -3 0
-8 -4 -11 -10z"/>
<path d="M3640 1657 c0 -8 11 -24 25 -37 24 -23 25 -23 25 -3 0 11 -8 27 -18
36 -22 20 -32 21 -32 4z"/>
<path d="M3895 1650 c10 -11 23 -20 28 -20 6 0 2 9 -8 20 -10 11 -23 20 -28
20 -6 0 -2 -9 8 -20z"/>
<path d="M4156 1652 c-3 -6 -1 -14 5 -17 15 -10 25 3 12 16 -7 7 -13 7 -17 1z"/>
<path d="M4070 1640 c0 -5 5 -10 10 -10 6 0 10 5 10 10 0 6 -4 10 -10 10 -5 0
-10 -4 -10 -10z"/>
<path d="M2752 1605 c2 -14 8 -26 13 -26 6 0 11 12 13 26 2 18 -1 25 -13 25
-12 0 -15 -7 -13 -25z"/>
<path d="M3340 1596 c0 -8 5 -18 10 -21 6 -3 10 1 10 9 0 8 -4 18 -10 21 -5 3
-10 -1 -10 -9z"/>
<path d="M3200 1561 c0 -12 6 -21 15 -21 8 0 15 4 15 9 0 5 -7 14 -15 21 -13
10 -15 9 -15 -9z"/>
<path d="M3480 1553 c0 -22 2 -25 10 -13 13 20 13 40 0 40 -5 0 -10 -12 -10
-27z"/>
<path d="M3850 1575 c0 -18 19 -40 26 -32 4 4 0 15 -9 24 -9 10 -17 13 -17 8z"/>
<path d="M3914 1563 c-12 -12 -13 -18 -4 -21 7 -3 22 5 33 17 18 18 19 21 5
21 -9 0 -24 -8 -34 -17z"/>
<path d="M3567 1547 c-3 -8 -1 -20 4 -28 7 -12 11 -11 25 3 17 17 12 38 -11
38 -7 0 -15 -6 -18 -13z"/>
<path d="M2494 1515 c-8 -20 3 -48 16 -40 13 8 13 55 0 55 -6 0 -13 -7 -16
-15z"/>
<path d="M2330 1491 c0 -12 5 -21 10 -21 6 0 10 6 10 14 0 8 -4 18 -10 21 -5
3 -10 -3 -10 -14z"/>
<path d="M3590 1483 c1 -5 9 -24 20 -43 23 -42 27 -26 4 18 -15 31 -24 40 -24
25z"/>
<path d="M3640 1468 c0 -7 5 -20 10 -28 8 -12 10 -11 10 7 0 12 -4 25 -10 28
-5 3 -10 0 -10 -7z"/>
<path d="M3060 1439 c0 -5 5 -7 10 -4 6 3 10 8 10 11 0 2 -4 4 -10 4 -5 0 -10
-5 -10 -11z"/>
<path d="M3392 1428 c-7 -7 -12 -17 -12 -24 0 -19 27 -24 41 -8 17 21 -10 51
-29 32z"/>
<path d="M2780 1421 c0 -6 5 -13 10 -16 6 -3 10 1 10 9 0 9 -4 16 -10 16 -5 0
-10 -4 -10 -9z"/>
<path d="M2517 5913 c-15 -14 -5 -21 33 -21 22 0 40 3 40 8 0 16 -59 27 -73
13z"/>
<path d="M2355 5900 c-3 -5 -1 -10 4 -10 6 0 11 5 11 10 0 6 -2 10 -4 10 -3 0
-8 -4 -11 -10z"/>
<path d="M2362 5726 c1 -10 8 -17 13 -17 15 1 12 24 -3 29 -9 3 -13 -2 -10
-12z"/>
<path d="M2511 5586 c-8 -10 -9 -16 -1 -21 5 -3 13 1 16 10 9 22 -1 29 -15 11z"/>
<path d="M2415 5451 c-3 -5 -1 -12 5 -16 12 -7 30 2 30 16 0 12 -27 12 -35 0z"/>
<path d="M2671 5404 c0 -11 3 -14 6 -6 3 7 2 16 -1 19 -3 4 -6 -2 -5 -13z"/>
<path d="M2257 5313 c-13 -12 -7 -33 8 -33 8 0 15 9 15 20 0 20 -11 26 -23 13z"/>
<path d="M2434 5286 c-3 -8 -1 -46 5 -85 6 -38 11 -72 11 -75 0 -3 7 -6 16 -6
12 0 14 7 10 28 -3 15 -8 55 -11 90 -7 59 -19 79 -31 48z"/>
<path d="M2317 5174 c-8 -8 1 -24 14 -24 5 0 9 7 9 15 0 15 -12 20 -23 9z"/>
<path d="M2400 4974 c0 -8 5 -12 10 -9 6 3 10 10 10 16 0 5 -4 9 -10 9 -5 0
-10 -7 -10 -16z"/>
<path d="M1990 5410 c0 -5 5 -10 11 -10 5 0 7 5 4 10 -3 6 -8 10 -11 10 -2 0
-4 -4 -4 -10z"/>
<path d="M1753 5283 c-92 -12 -116 -185 -31 -229 39 -20 112 0 128 35 25 54
29 81 15 114 -18 42 -54 87 -68 85 -7 0 -26 -3 -44 -5z"/>
<path d="M1280 5121 c-15 -30 -12 -56 9 -76 11 -9 21 -32 23 -51 2 -19 8 -35
13 -37 12 -2 43 86 44 127 2 50 -67 78 -89 37z"/>
<path d="M1920 5085 c0 -8 5 -15 10 -15 6 0 10 7 10 15 0 8 -4 15 -10 15 -5 0
-10 -7 -10 -15z"/>
<path d="M2031 5018 c0 -7 4 -22 9 -33 8 -18 9 -17 9 7 1 15 -3 30 -9 33 -5 3
-10 0 -9 -7z"/>
<path d="M1935 4940 c-7 -12 2 -30 16 -30 5 0 9 9 9 20 0 21 -15 27 -25 10z"/>
<path d="M1604 4862 c18 -34 42 -56 50 -44 8 13 -32 72 -49 72 -14 0 -14 -3
-1 -28z"/>
<path d="M2070 4820 c0 -19 3 -21 12 -12 9 9 9 15 0 24 -9 9 -12 7 -12 -12z"/>
<path d="M1290 4670 c0 -5 7 -10 15 -10 8 0 15 5 15 10 0 6 -7 10 -15 10 -8 0
-15 -4 -15 -10z"/>
<path d="M1210 4615 c0 -8 7 -15 15 -15 8 0 15 7 15 15 0 8 -7 15 -15 15 -8 0
-15 -7 -15 -15z"/>
<path d="M1180 4342 c0 -15 22 -29 58 -37 25 -5 32 -3 32 9 0 19 -6 23 -53 31
-22 4 -37 3 -37 -3z"/>
<path d="M1538 4319 c-8 -20 19 -82 32 -74 16 10 12 41 -8 65 -15 18 -20 20
-24 9z"/>
<path d="M1576 4317 c3 -10 9 -15 12 -12 3 3 0 11 -7 18 -10 9 -11 8 -5 -6z"/>
<path d="M1592 4279 c2 -7 10 -15 17 -17 8 -3 12 1 9 9 -2 7 -10 15 -17 17 -8
3 -12 -1 -9 -9z"/>
<path d="M1530 4192 c-12 -39 -12 -44 8 -62 11 -11 25 -28 31 -37 5 -10 13
-14 17 -10 4 4 -2 17 -14 30 -13 13 -19 31 -16 42 2 11 0 34 -4 50 l-9 30 -13
-43z"/>
<path d="M1022 4058 c2 -15 11 -24 26 -26 18 -3 22 1 22 22 0 21 -5 26 -26 26
-21 0 -25 -4 -22 -22z"/>
<path d="M1566 4024 c-4 -10 -1 -14 6 -12 15 5 23 28 10 28 -5 0 -13 -7 -16
-16z"/>
<path d="M1033 3865 c-3 -9 -3 -18 0 -22 10 -10 37 6 37 22 0 20 -29 20 -37 0z"/>
<path d="M781 3774 c0 -11 3 -14 6 -6 3 7 2 16 -1 19 -3 4 -6 -2 -5 -13z"/>
<path d="M1396 3781 c-10 -16 5 -42 23 -39 21 4 21 42 -1 46 -9 2 -19 -1 -22
-7z"/>
<path d="M987 3670 c6 -24 19 -34 34 -25 7 5 4 14 -7 26 -22 25 -33 24 -27 -1z"/>
<path d="M1342 3668 c6 -18 28 -21 28 -4 0 9 -7 16 -16 16 -9 0 -14 -5 -12
-12z"/>
<path d="M1390 3545 c0 -8 5 -15 10 -15 6 0 10 7 10 15 0 8 -4 15 -10 15 -5 0
-10 -7 -10 -15z"/>
<path d="M1130 3420 c-6 -11 -7 -20 -2 -20 10 0 32 21 32 32 0 16 -19 8 -30
-12z"/>
<path d="M1436 3364 c-20 -19 -20 -44 -2 -69 12 -17 18 -18 40 -7 31 14 35 51
8 75 -23 21 -27 21 -46 1z"/>
<path d="M1205 3350 c3 -5 8 -10 11 -10 2 0 4 5 4 10 0 6 -5 10 -11 10 -5 0
-7 -4 -4 -10z"/>
<path d="M2960 4780 c0 -5 5 -10 10 -10 6 0 10 5 10 10 0 6 -4 10 -10 10 -5 0
-10 -4 -10 -10z"/>
<path d="M2994 4665 c-7 -17 4 -37 17 -30 12 8 12 45 -1 45 -6 0 -13 -7 -16
-15z"/>
<path d="M2960 4661 c0 -6 5 -13 10 -16 6 -3 10 1 10 9 0 9 -4 16 -10 16 -5 0
-10 -4 -10 -9z"/>
<path d="M4026 4472 c-4 -13 -5 -26 -2 -29 10 -11 18 4 14 29 l-4 23 -8 -23z"/>
<path d="M2970 4351 c0 -6 5 -13 10 -16 6 -3 10 1 10 9 0 9 -4 16 -10 16 -5 0
-10 -4 -10 -9z"/>
<path d="M2531 3744 c0 -11 3 -14 6 -6 3 7 2 16 -1 19 -3 4 -6 -2 -5 -13z"/>
<path d="M3533 2880 c-81 -16 -167 -91 -206 -178 -25 -58 -21 -159 9 -199 67
-91 225 -74 325 34 153 166 72 382 -128 343z m130 -150 c58 -65 13 -185 -88
-231 -49 -23 -68 -23 -110 -4 -57 28 -70 88 -34 162 50 104 169 141 232 73z"/>
<path d="M4240 6240 c-25 -25 -25 -38 0 -70 16 -20 22 -23 37 -14 27 17 30 80
4 94 -17 8 -24 7 -41 -10z"/>
<path d="M2615 6237 c-8 -19 12 -50 26 -41 13 7 11 17 -5 40 -14 18 -15 18
-21 1z"/>
<path d="M2720 6204 c0 -8 5 -12 10 -9 6 4 8 11 5 16 -9 14 -15 11 -15 -7z"/>
<path d="M2690 6196 c0 -9 5 -16 10 -16 6 0 10 4 10 9 0 6 -4 13 -10 16 -5 3
-10 -1 -10 -9z"/>
<path d="M4367 6134 c-4 -4 -7 -14 -7 -23 0 -11 3 -12 11 -4 6 6 10 16 7 23
-2 6 -7 8 -11 4z"/>
<path d="M4547 6073 c-12 -12 -7 -50 8 -63 30 -25 61 30 33 58 -13 13 -31 16
-41 5z"/>
<path d="M4186 5985 c-9 -24 -8 -25 15 -25 14 0 19 5 17 17 -4 23 -24 27 -32
8z"/>
<path d="M5447 5034 c-4 -4 -7 -16 -7 -26 0 -10 -10 -29 -22 -41 -13 -13 -29
-36 -36 -52 l-14 -30 27 25 c38 36 80 109 68 121 -5 5 -12 6 -16 3z"/>
<path d="M681 4144 c0 -11 3 -14 6 -6 3 7 2 16 -1 19 -3 4 -6 -2 -5 -13z"/>
<path d="M6195 3683 c-16 -3 -34 -8 -39 -13 -12 -12 37 -41 65 -38 20 3 24 -2
29 -34 5 -28 84 -168 94 -168 2 0 4 59 5 130 l2 130 -63 -1 c-35 -1 -76 -4
-93 -6z"/>
<path d="M5704 3346 c-7 -19 3 -36 22 -36 10 0 14 8 12 22 -4 26 -26 36 -34
14z"/>
<path d="M0 2677 l0 -67 34 0 c19 0 41 -3 50 -6 25 -9 20 22 -6 40 -12 9 -33
16 -45 16 -19 0 -22 5 -21 35 1 19 -2 38 -5 42 -4 3 -7 -24 -7 -60z"/>
<path d="M5742 2638 c3 -7 13 -15 22 -16 12 -3 17 1 14 10 -3 7 -13 15 -22 16
-12 3 -17 -1 -14 -10z"/>
<path d="M5584 2585 c-7 -18 3 -35 21 -35 18 0 26 25 12 39 -15 15 -27 14 -33
-4z"/>
<path d="M5780 2330 c0 -5 9 -10 21 -10 11 0 17 5 14 10 -3 6 -13 10 -21 10
-8 0 -14 -4 -14 -10z"/>
<path d="M5390 2091 c0 -12 6 -21 16 -21 9 0 14 7 12 17 -5 25 -28 28 -28 4z"/>
<path d="M5190 1900 c8 -5 22 -9 30 -9 10 0 8 3 -5 9 -27 12 -43 12 -25 0z"/>
<path d="M5447 1854 c-12 -12 -8 -51 8 -64 26 -22 50 -8 50 30 0 30 -4 35 -25
38 -14 2 -29 0 -33 -4z"/>
<path d="M5667 1834 c-11 -11 -8 -64 3 -64 14 0 24 50 13 61 -5 5 -12 6 -16 3z"/>
<path d="M5948 1658 c-24 -28 -26 -34 -14 -47 20 -19 50 -6 43 19 -3 12 1 24
10 29 9 4 13 13 9 20 -11 17 -19 14 -48 -21z"/>
<path d="M4781 1621 c-13 -24 8 -55 34 -50 23 5 40 32 32 53 -9 22 -54 20 -66
-3z"/>
<path d="M4623 1514 c-8 -20 13 -42 27 -28 12 12 3 44 -11 44 -5 0 -12 -7 -16
-16z"/>
<path d="M4893 1454 c-8 -20 9 -36 30 -28 21 8 22 30 1 38 -22 8 -24 8 -31
-10z"/>
<path d="M4310 1445 c0 -8 5 -15 10 -15 6 0 10 7 10 15 0 8 -4 15 -10 15 -5 0
-10 -7 -10 -15z"/>
<path d="M1906 1434 c-8 -21 -8 -24 4 -24 5 0 14 9 20 20 8 16 8 20 -4 20 -7
0 -17 -7 -20 -16z"/>
<path d="M4845 1380 c-3 -5 1 -10 10 -10 9 0 13 5 10 10 -3 6 -8 10 -10 10 -2
0 -7 -4 -10 -10z"/>
<path d="M4890 1380 c0 -5 7 -10 16 -10 8 0 12 5 9 10 -3 6 -10 10 -16 10 -5
0 -9 -4 -9 -10z"/>
<path d="M1742 1325 c-17 -38 -15 -85 3 -85 20 0 56 59 53 85 -4 31 -42 31
-56 0z"/>
<path d="M4410 1341 c0 -18 19 -51 30 -51 17 0 11 26 -10 45 -13 11 -20 14
-20 6z"/>
<path d="M1881 1174 c0 -11 3 -14 6 -6 3 7 2 16 -1 19 -3 4 -6 -2 -5 -13z"/>
<path d="M4577 1164 c-9 -9 4 -35 14 -28 5 3 9 12 9 20 0 14 -12 19 -23 8z"/>
<path d="M4752 1109 c-7 -12 -12 -23 -10 -25 6 -6 48 26 48 37 0 17 -25 9 -38
-12z"/>
<path d="M4075 1098 c-45 -33 -54 -49 -55 -91 -1 -112 101 -178 172 -112 57
53 56 140 -2 186 -49 39 -79 44 -115 17z"/>
<path d="M2900 1081 c-15 -28 -12 -74 5 -97 15 -19 15 -19 30 0 15 20 20 72 9
100 -8 22 -31 20 -44 -3z"/>
<path d="M4770 1070 c0 -5 7 -10 15 -10 8 0 15 5 15 10 0 6 -7 10 -15 10 -8 0
-15 -4 -15 -10z"/>
<path d="M5840 911 c-14 -27 -2 -51 25 -51 29 0 39 14 31 46 -8 29 -41 32 -56
5z"/>
</g>
</svg>
