<?xml version="1.0" standalone="no"?>
<!DOCTYPE svg PUBLIC "-//W3C//DTD SVG 20010904//EN"
 "http://www.w3.org/TR/2001/REC-SVG-20010904/DTD/svg10.dtd">
<svg version="1.0" xmlns="http://www.w3.org/2000/svg"
 width="1238.000000pt" height="1238.000000pt" viewBox="0 0 1238.000000 1238.000000"
 preserveAspectRatio="xMidYMid meet">
<metadata>
Created by potrace 1.16, written by Peter Selinger 2001-2019
</metadata>
<g transform="translate(0.000000,1238.000000) scale(0.100000,-0.100000)"
fill="#000000" stroke="none">
<path d="M3415 11290 c-594 -45 -1148 -304 -1585 -740 -394 -393 -634 -863
-721 -1415 l-24 -150 0 -2755 0 -2755 23 -135 c74 -436 229 -800 487 -1145
114 -154 345 -385 495 -496 118 -88 299 -203 307 -195 2 2 -3 30 -12 62 -50
185 -64 239 -60 243 10 10 19 -12 35 -86 9 -43 25 -109 35 -148 10 -38 19 -75
21 -81 3 -15 177 -98 294 -141 226 -82 337 -112 541 -145 l144 -23 2745 0
c2634 0 2749 1 2855 19 61 10 133 22 160 26 146 23 489 137 565 188 14 9 46
24 72 33 65 24 261 145 398 247 149 112 381 344 493 494 262 351 421 727 489
1158 l23 145 0 2745 0 2745 -23 145 c-41 253 -120 514 -220 717 -138 282 -283
484 -502 703 -387 388 -843 623 -1390 717 l-155 27 -2695 2 c-1482 1 -2740 -2
-2795 -6z m4880 -2033 c367 -90 622 -288 775 -601 60 -123 95 -253 110 -412 9
-98 14 -122 32 -141 12 -13 27 -23 35 -23 11 0 13 -156 13 -880 0 -787 -2
-880 -15 -880 -9 0 -27 -11 -40 -24 l-25 -25 0 -978 c0 -964 -5 -1129 -34
-1254 -83 -358 -344 -651 -689 -774 -137 -49 -248 -67 -417 -69 l-145 -1 -4
25 -4 25 -6 -25 -7 -25 -1647 -2 c-906 -1 -1651 -4 -1656 -7 -4 -3 -22 -1 -39
4 -17 4 -78 6 -134 4 -131 -6 -368 10 -450 31 -209 54 -376 146 -517 286 -180
179 -292 411 -320 662 -15 130 -15 3976 0 4118 28 281 170 549 386 728 162
136 383 230 583 250 47 5 999 8 2115 7 1879 -2 2035 -3 2100 -19z m-4646
-6871 c-6 -21 -12 -88 -14 -150 -4 -172 -26 -488 -35 -516 -5 -16 -9 32 -9
126 -1 211 40 607 60 587 5 -5 4 -26 -2 -47z"/>
<path d="M7429 8714 l-24 -26 -3 -531 c-2 -293 0 -551 3 -574 11 -75 -4 -73
618 -73 l546 0 26 23 26 22 0 570 -1 570 -25 23 -26 22 -558 0 -558 0 -24 -26z"/>
<path d="M6030 7420 c-653 -67 -1129 -644 -1069 -1293 26 -278 153 -543 353
-734 231 -222 510 -336 826 -336 312 0 596 114 819 327 480 460 487 1216 16
1692 -244 248 -605 379 -945 344z"/>
<path d="M3542 6950 c-12 -5 -27 -21 -32 -36 -7 -18 -10 -480 -8 -1368 l3
-1341 29 -85 c40 -119 97 -211 185 -300 88 -89 179 -145 301 -186 l85 -29
1567 -3 1568 -2 -7 31 c-4 23 -3 30 5 25 7 -4 12 -18 12 -32 l0 -24 413 0
c226 0 444 5 483 10 158 20 288 85 409 204 93 92 154 187 193 303 l27 78 3
1353 3 1353 -30 30 -30 30 -514 -3 c-490 -3 -516 -4 -536 -22 -28 -26 -27 -79
3 -147 33 -75 63 -191 81 -309 19 -126 19 -366 0 -490 -55 -364 -225 -688
-498 -945 -322 -305 -723 -456 -1167 -442 -189 6 -294 24 -469 83 -486 162
-867 543 -1030 1032 -55 164 -72 267 -78 469 -7 239 22 418 101 625 30 79 25
108 -23 133 -26 13 -97 15 -528 14 -274 0 -508 -4 -521 -9z"/>
<path d="M10710 10371 c0 -6 22 -42 49 -79 189 -260 338 -573 415 -872 44
-168 63 -286 76 -462 14 -191 14 -5271 1 -5438 -105 -1273 -1105 -2278 -2376
-2390 -134 -12 -5307 -12 -5455 0 -567 45 -1131 287 -1534 658 -113 105 -126
116 -126 110 0 -4 59 -61 131 -128 415 -383 870 -610 1409 -702 l135 -23 2785
0 2785 0 130 22 c573 98 1042 339 1441 737 399 400 637 865 735 1436 19 110
22 174 26 542 5 398 4 416 -14 421 -16 4 -16 5 0 6 17 1 17 110 14 2374 -3
2369 -3 2372 -24 2492 -77 433 -234 810 -472 1135 -91 123 -131 172 -131 161z"/>
</g>
</svg>
