<?xml version="1.0" standalone="no"?>
<!DOCTYPE svg PUBLIC "-//W3C//DTD SVG 20010904//EN"
 "http://www.w3.org/TR/2001/REC-SVG-20010904/DTD/svg10.dtd">
<svg version="1.0" xmlns="http://www.w3.org/2000/svg"
 width="512.000000pt" height="512.000000pt" viewBox="0 0 512.000000 512.000000"
 preserveAspectRatio="xMidYMid meet">

<g transform="translate(0.000000,512.000000) scale(0.100000,-0.100000)"
fill="#000000" stroke="none">
<path d="M2470 5063 c-681 -48 -1240 -536 -1375 -1198 -73 -359 -11 -646 251
-1169 173 -344 480 -836 803 -1289 132 -185 160 -219 215 -256 72 -48 128 -63
219 -59 153 7 212 54 393 306 560 783 939 1469 1054 1907 73 283 30 621 -117
920 -145 294 -373 526 -664 675 -181 93 -350 141 -560 160 -112 10 -127 10
-219 3z m315 -681 c250 -67 462 -239 577 -467 14 -27 38 -88 54 -135 26 -80
28 -96 29 -255 0 -166 -1 -172 -33 -271 -123 -375 -456 -618 -847 -618 -250 0
-447 83 -625 263 -134 136 -211 277 -246 450 -22 112 -15 304 16 411 47 167
161 341 292 447 115 93 276 166 425 193 75 14 278 4 358 -18z"/>
<path d="M2432 4044 c-96 -25 -164 -66 -243 -144 -116 -115 -161 -224 -160
-385 1 -149 49 -261 157 -371 244 -247 637 -206 833 87 101 152 113 368 29
534 -48 94 -150 195 -243 240 -110 54 -261 70 -373 39z"/>
<path d="M1190 1918 c-680 -156 -1098 -422 -1175 -750 -120 -509 562 -926
1745 -1067 287 -35 466 -44 800 -44 334 0 513 9 800 44 1183 141 1865 558
1745 1067 -65 273 -352 496 -855 662 -124 41 -509 137 -514 128 -1 -2 -57 -88
-124 -191 -68 -104 -124 -193 -125 -199 -1 -6 61 -22 148 -38 250 -46 462
-106 665 -188 172 -69 329 -175 363 -244 16 -33 16 -40 4 -70 -26 -61 -120
-134 -272 -208 -302 -148 -668 -238 -1210 -297 -231 -25 -1019 -25 -1250 0
-542 59 -908 149 -1210 297 -152 74 -246 147 -272 208 -12 30 -12 37 4 70 34
69 191 175 363 244 203 82 418 143 661 187 80 14 148 30 150 34 6 11 -244 396
-256 396 -5 0 -89 -19 -185 -41z"/>
</g>
</svg>
