<?xml version="1.0" standalone="no"?>
<!DOCTYPE svg PUBLIC "-//W3C//DTD SVG 20010904//EN"
 "http://www.w3.org/TR/2001/REC-SVG-20010904/DTD/svg10.dtd">
<svg version="1.0" xmlns="http://www.w3.org/2000/svg"
 width="600.000000pt" height="600.000000pt" viewBox="0 0 600.000000 600.000000"
 preserveAspectRatio="xMidYMid meet">

<g transform="translate(0.000000,600.000000) scale(0.100000,-0.100000)"
fill="#000000" stroke="none">
<path d="M2798 5993 c6 -2 18 -2 25 0 6 3 1 5 -13 5 -14 0 -19 -2 -12 -5z"/>
<path d="M3178 5993 c6 -2 18 -2 25 0 6 3 1 5 -13 5 -14 0 -19 -2 -12 -5z"/>
<path d="M2180 5019 c-169 -99 -185 -111 -206 -151 -32 -62 -53 -20 428 -853
155 -268 178 -295 247 -295 51 0 366 182 398 229 48 71 50 65 -269 618 -316
548 -312 543 -398 543 -38 -1 -68 -14 -200 -91z"/>
<path d="M1800 4684 c-297 -179 -390 -333 -390 -641 0 -752 589 -1963 1300
-2673 249 -249 482 -412 664 -464 75 -22 213 -23 295 -1 88 23 331 134 331
151 0 7 -570 996 -580 1008 -5 4 -34 -2 -66 -14 -75 -28 -185 -28 -272 -1
-351 109 -733 670 -793 1163 -24 194 21 355 125 453 l54 50 -288 498 c-158
274 -291 502 -296 507 -5 5 -40 -10 -84 -36z"/>
<path d="M2 3190 c0 -14 2 -19 5 -12 2 6 2 18 0 25 -3 6 -5 1 -5 -13z"/>
<path d="M5992 3190 c0 -14 2 -19 5 -12 2 6 2 18 0 25 -3 6 -5 1 -5 -13z"/>
<path d="M2 2810 c0 -14 2 -19 5 -12 2 6 2 18 0 25 -3 6 -5 1 -5 -13z"/>
<path d="M5992 2810 c0 -14 2 -19 5 -12 2 6 2 18 0 25 -3 6 -5 1 -5 -13z"/>
<path d="M3695 2382 c-93 -54 -178 -111 -190 -126 -14 -19 -20 -42 -20 -74 1
-43 26 -90 290 -547 313 -538 317 -545 397 -545 30 0 70 18 181 82 185 106
203 118 221 149 35 60 25 91 -107 320 -440 765 -462 802 -492 820 -60 38 -95
28 -280 -79z"/>
<path d="M2798 3 c6 -2 18 -2 25 0 6 3 1 5 -13 5 -14 0 -19 -2 -12 -5z"/>
<path d="M3178 3 c6 -2 18 -2 25 0 6 3 1 5 -13 5 -14 0 -19 -2 -12 -5z"/>
</g>
</svg>
